<svg xmlns="http://www.w3.org/2000/svg" width="312" height="300" viewBox="0 0 312 300">
    <g fill="none" fill-rule="evenodd">
        <circle cx="156" cy="150" r="142" fill="#9DA7A9" opacity=".3"/>
        <path fill="#FFF" d="M121.185 194.25c1.73-19.379 1.118-33.976-1.84-43.791-4.436-14.723-14.575-33.076-18.962-40.038-4.387-6.962-14.178-23.568-16.883-38.066-1.804-9.665-2.892-18.465-3.265-26.4-4.095-3.86-6.447-8.296-7.056-13.309s4.33-8.306 14.819-9.876l2.48 2.381c1.526-1.587 2.804-2.381 3.834-2.381 1.03 0 2.078.411 3.146 1.234-2.847 4.2-4.271 7.461-4.271 9.782 0 3.48 2.05 5.198.638 7.8a333.759 333.759 0 0 1-2.22 4.04c1.952 14.282 3.902 24.399 5.853 30.35 2.925 8.929 12.64 26.286 16.675 31.434 2.69 3.433 5.81 7.478 9.362 12.136 3.124.302 5.086.598 5.886.89.8.292 2.583 1.03 5.348 2.212.284-10.379.426-16.605.426-18.679 0-2.074-.142-5.614-.426-10.621-2.172-1.4-3.258-3.855-3.258-7.367s.942-5.757 2.826-6.736c-.955-11.57.61-19.889 4.693-24.955 6.126-7.6 19.326-8.335 21.291-8.335 1.966 0 6.784 1.055 7.612 1.457.553.268 1.545.819 2.978 1.653 2.6-1.902 5.264-2.722 7.99-2.458 4.09.396 9.54 1.437 11.814 9.21 2.274 7.772.158 12.758-1.406 13.848-1.043.726-2.946 1.623-5.71 2.69-2.729 16.476-4.295 25.81-4.698 28.005-.604 3.291-2.378 10.201-5 12.333-2.623 2.132-5.274 3.87-10.01 3.001-3.157-.58-5.138-.973-5.942-1.18l-1.123 8.134 25.388 9.685c3.247 11.657 6.081 19.81 8.501 24.459 3.63 6.973 10.24 17.22 13.657 21.29 2.278 2.715 6.694 7.143 13.247 13.286l-18.053 2.883-22.406-1.183-55.935 1.183z"/>
        <g transform="translate(63)">
            <path stroke="#281F57" stroke-linecap="round" stroke-linejoin="round" d="M70.626 78.657c-1.128-17.462 2.471-27.344 16.909-31.347 10.557-2.926 18.276-1.2 23.156 5.177M71.086 127.569c.646-15.131.638-26.694-.024-34.688"/>
            <path stroke="#281F57" stroke-linecap="round" stroke-linejoin="round" d="M107.211 49.01c4.336-2.942 9-3.205 13.994-.788 7.49 3.627 10.67 19.89 1.642 23.318-9.028 3.428-20.818-.206-28.108-8.362 0 0 3.317 14.646-11.485 20.457-1.375-7.795-14.202-8.615-15.128 1.3-.926 9.914 9.03 11.966 13.251 8.098M114.408 142.235c2.174 16.548 2.168 33.373-.017 50.473"/>
            <path stroke="#281F57" stroke-linecap="round" stroke-linejoin="round" d="M154.435 191.222c-18.1-15.54-30.01-35.186-35.73-58.937l-25.19-9.737M120.076 72.5c-2.91 17.397-4.56 27.29-4.95 29.678-.583 3.582-3.167 12.032-9.534 13.155-4.244.748-9.153-.04-14.728-2.363M100.97 106.973c-6.048-1.096-9.355-4.594-9.92-10.495"/>
            <path stroke="#281F57" stroke-linecap="round" stroke-linejoin="round" d="M108.669 87.24l1.452 8.234c-1.195 1.134-2.836 1.424-4.924.869M94.297 115.294l-1.845 12.57M71.07 127.561c7.105 2.89 15.26 3.071 24.466.546"/>
            <ellipse cx="101.837" cy="85.898" fill="#281F57" rx="1.5" ry="1.507" transform="rotate(4 101.837 85.898)"/>
            <ellipse cx="110.986" cy="88.867" fill="#281F57" rx="1" ry="1.005" transform="rotate(4 110.986 88.867)"/>
            <path stroke="#281F57" stroke-linecap="round" stroke-linejoin="round" d="M130.5 153.78c-2.108 2.413-6.683 5.26-13.725 8.543M71.279 122.74c-3.16-2.131-6.907-3.2-11.24-3.203-6.1-7.78-15.862-19.973-22.671-34.874-4.54-9.933-7.626-23.011-9.26-39.233 2.44-2.782 3.047-5.692 1.824-8.73-1.223-3.038.126-7.187 4.048-12.447-.759-1.412-2.112-1.732-4.06-.959-2.92 1.16-7.336 5.39-7.329 13.4"/>
            <path stroke="#281F57" stroke-linecap="round" stroke-linejoin="round" d="M58.445 194.05c2.583-24.174-.635-44.913-9.654-62.218-13.527-25.957-21.116-33.736-26.58-51.363-3.64-11.751-5.493-23.266-5.554-34.543-4.42-4.97-6.63-8.781-6.633-11.431-.003-3.976-1.36-8.34 10.392-9.727M136.878 194.519c-10.2-11.787-17.09-22.745-20.673-32.872M52.103 103.816c-2.505 6.217-6.781 9.924-12.83 11.121M26.722 25.162c-5.922-6.327-7.108-12.273-8.663-17.433-1.555-5.16-3.302-4.006-3.8-1.766-.5 2.24-1.705 9.683 3.812 15.826"/>
            <path stroke="#281F57" stroke-linecap="round" stroke-linejoin="round" d="M13.645 10.596c-.847-2.319-1.023-4.863-1.653-6.951-1.555-5.16-3.88-2.244-4.378-.004-.499 2.24.525 14.309 6.042 20.452"/>
            <path stroke="#281F57" stroke-linecap="round" stroke-linejoin="round" d="M7.743 10.21c-2.259-4.893-3.348-2.293-3.53-.005-.182 2.289-.24 10.507 6.077 15.822"/>
            <path stroke="#281F57" stroke-linecap="round" stroke-linejoin="round" d="M7.168 22.898c-1.433-.61-2.877-1.43-4.33-2.463-2.182-1.55-2.724 4.674 1.492 5.798 4.216 1.125 3.902 1.035 5.881 8.93"/>
        </g>
        <path fill="#281F57" fill-opacity=".2" d="M107.723 117.184c3.38 5.164 5.816 9.131 7.307 11.902 2.238 4.157 10.803 23.24 10.803 40.564 0 17.323-.566 20.675 6.555 22.187 7.12 1.512 37.495.213 42.486-1.502 4.991-1.716 5.737-1.77 5.737-7.745 0-5.974.669-15.208 1.427-18.214 3.294-1.983 7.515-4.671 12.663-8.063-5.323-9.463-8.437-17.887-9.34-25.272-3.306-1.303-11.437-4.678-24.393-10.125l-1.812 10.125c-4.067 1.344-8.527 2.016-13.38 2.016-4.852 0-8.038-.672-9.558-2.016.676-5.842 1.014-9.217 1.014-10.125-4.072-2.37-8.378-3.305-11.399-5.26-2.014-1.303-4.557-4.217-7.629-8.743l-10.481 10.271z"/>
        <path fill="#FFF" d="M45.975 202.605l103.296-19.911 128.29-1.859 32.128 31.77-30.764 5.397 1.96 59.983-107.465 15.273-119.461 4.968-4.299-53.256-47.872 8.017z"/>
        <path stroke="#52A4C5" stroke-linecap="round" stroke-linejoin="round" d="M1.715 252.983L46.1 202.407l103.15-19.258-37.79 51.2zM152.058 182.964l77.007-2.028M255.772 180.936h21.87l3.204 97.074-119.252 3.62M279.502 182.92l30.236 29.893-28.67 4.807"/>
        <path stroke="#52A4C5" stroke-linecap="round" stroke-linejoin="round" d="M50.008 246.836l3.876 51.234 105.17-16.228-8.365-96.372M67.427 297.81l104.974-4.538 95.033-13.03"/>
        <path fill="#52A4C5" fill-opacity=".4" d="M83.25 297.983c.688 3.166 78.282-.79 89.998-1.757 7.81-.644 37.314-4.654 88.512-12.03 2.235-.438 3.352-1.374 3.352-2.807 0-2.15-9.512-.65-17.083-.65-7.571 0-81.81 2.678-86.502 3.457-4.693.78-60.275 8.147-68.607 9.614-8.33 1.468-10.357 1.008-9.67 4.173zM282.005 191.401c-2.205 1.184-1.306 6.072-1.306 10.089s.49 11.728.49 13.788c0 2.06 2.259 3.446 4.043 3.983 1.785.536 4.404-.079 6.953-.45 2.55-.372 11.698-2.048 13.101-2.612 1.403-.563 2.025-2.01.756-3.616-1.268-1.607-15.882-15.477-17.575-17.212-1.692-1.735-4.257-5.153-6.462-3.97z"/>
        <path fill="#52A4C5" fill-opacity=".2" d="M51.788 204.26c-2.327.64-4.766 2.15-6.714 4.15-1.948 2.002-30.743 35.12-31.937 36.34-1.194 1.22-1.214 3.5 1.062 3.5 2.277 0 87.156-15.31 90.226-16.223 3.07-.913 6.193-3.106 7.697-4.81 1.503-1.706 23.336-32.21 25.096-34.714 1.76-2.504.602-4.094-2.15-3.652-2.751.441-80.954 14.77-83.28 15.409zM162.021 186.865c-2.324 0-7.183 1.26-7.183 6.425s7.183 74.354 7.183 77.88c0 3.527.842 7.135 8.068 7.135 2.011 0 15.797-.443 41.357-1.33v-13.326l18.158-1.118v13.772c28.831-1.017 43.689-1.525 44.574-1.525 3.24 0 3.24-3.055 3.24-5.665s-1.647-77.938-2.566-80.576c-.919-2.638-3.02-3.961-5.825-3.961h-9.71c-1.24 0-3.21 1.075-3.21 3.296 0 2.222-.542 8.092-4.992 8.092s-9.972-.084-12.631-1.94c-2.66-1.857-3.294-7.392-4.939-8.703-1.192-.95-3.013-1.198-5.462-.745v13.91l-19.502.773V185.32c-29.75 1.03-45.27 1.544-46.56 1.544z"/>
        <path fill="#52A4C5" fill-opacity=".2" d="M58.274 247.536c-2.58.644-4.75.65-4.75 4.467 0 3.818 2.375 36.32 2.375 38.162 0 1.841.075 5.62 4.728 4.547 4.653-1.074 84.606-13.634 87.973-14.545 3.366-.91 5.668-3.755 5.668-7.506 0-3.75-5.668-69.528-5.668-72.32 0-2.792-3.456-4.508-4.567-2.254-1.11 2.254-24.638 34.477-26.469 36.852-1.83 2.375-3.952 3.58-7.11 3.95-3.16.368-49.6 8.002-52.18 8.647z"/>
        <path fill="#52A4C5" fill-opacity=".4" d="M48.436 257.278c2.074 0 62.66-9.969 66.873-11.014 4.213-1.045 6.778-3.91 8.148-6.303.913-1.596 9.599-20.476 26.057-56.64l-38.047 51.145-66.858 11.167c-.197 4.885-.087 7.874.33 8.969.626 1.641 1.422 2.676 3.497 2.676z"/>
        <path stroke="#FD9800" stroke-linecap="round" stroke-linejoin="round" d="M214.245 277.907V265.67l17.657-.914v12.327M212.245 184.26v11.932l17.657-.914v-11.84"/>
        <g>
            <path fill="#FFF" d="M230.658 182.068c1.114-3.602 1.896-5.766 2.346-6.494.676-1.09 2.372-3.732 3.72-3.732.899 0 2.079.326 3.54.979.264-.43 1-.645 2.205-.645s2.613.913 4.226 2.738c1.656.571 2.644 1.054 2.963 1.449.48.592 2.535.283 3.049 1.093.514.81 1.342 2.265 1.342 3.667 0 1.402-1.482 5.416-2.047 5.793-.565.377-.364 4.071-1.354 4.475-.99.404-2.015-.446-2.39-.977-.25-.354-.772-1.697-1.563-4.029l-1.52 3.531c-.144 1.413-.525 2.12-1.144 2.12-.93 0-2.604-2.569-3.185-3.844-.388-.85-1.17-3.207-2.346-7.07l-7.842.946z"/>
            <path stroke="#281F57" stroke-linecap="round" stroke-linejoin="round" d="M231.153 180.356c1.954-5.399 3.728-8.171 5.323-8.317 2.391-.218 6.338.219 7.667 8.317 1.328 8.098 1.461 11.572-.296 11.572-1.758 0-4.555-6.844-5.157-10.12-.401-2.184-.602-3.716-.602-4.598"/>
            <path stroke="#281F57" stroke-linecap="round" stroke-linejoin="round" d="M239.812 172.454c.907-.507 1.913-.594 3.016-.263 1.655.498 4.885 2.108 4.885 6.98 0 3.248-.846 6.828-2.54 10.742"/>
            <path stroke="#281F57" stroke-linecap="round" stroke-linejoin="round" d="M246.28 174.448c2.77.734 4.433 2.684 4.99 5.852.835 4.75.357 11.359-1.262 11.359-1.079 0-2.193-1.683-3.342-5.048"/>
            <path stroke="#281F57" stroke-linecap="round" stroke-linejoin="round" d="M249.97 176.446c1.749 0 2.863.683 3.343 2.048.72 2.048 1.014 4.993-1.244 8.548"/>
        </g>
        <path fill="#9DA7A9" d="M179.024 181.77l9.894-.245c-1.104-1.59-2.526-3.851-4.265-6.782-1.739-2.93-3.464-6.469-5.175-10.616.111 4.178.068 8.122-.132 11.832-.199 3.709-.306 5.646-.322 5.81z" opacity=".3"/>
    </g>
</svg>
