<?xml version="1.0" encoding="utf-8"?>
<!-- Generator: Adobe Illustrator 16.0.0, SVG Export Plug-In . SVG Version: 6.00 Build 0)  -->
<!DOCTYPE svg PUBLIC "-//W3C//DTD SVG 1.1//EN" "http://www.w3.org/Graphics/SVG/1.1/DTD/svg11.dtd">
<svg version="1.1" id="Layer_1" xmlns="http://www.w3.org/2000/svg" xmlns:xlink="http://www.w3.org/1999/xlink" x="0px" y="0px"
	viewBox="0 0 141.73 141.73" enable-background="new 0 0 141.73 141.73" xml:space="preserve">
<g>
	<circle fill="#DFE2E1" cx="70.865" cy="70.865" r="67"/>
	<g>
		<g>
			<g>
				<path fill="#D4D0DD" d="M22.349,64.982c-2.605,3.3-3.682,7.277-3.682,10.974c0,10.381,5.498,21.447,25.795,21.447h48.745
					c15.543,0,24.373-10.784,24.373-21.293c0-4.068-1.248-7.888-3.396-11.128H22.349z"/>
			</g>
		</g>
	</g>
	<g>
		<g>
			<path fill="#FFFFFF" d="M46.462,92.903c-22.009,0-25.295-13.124-25.295-20.947c0-7.187,4.269-15.533,16.248-17.409l0.389-0.062
				l0.032-0.392c0.564-6.903,4.774-14.28,14.896-14.28c0.735,0,1.484,0.036,2.226,0.107l0.288,0.027l0.167-0.235
				c4.356-6.133,12.362-9.942,20.891-9.942c13.371,0,24.25,9.05,24.25,20.174c0,0.534-0.021,1.013-0.066,1.462l-0.045,0.475
				l0.471,0.069c10.357,1.517,18.166,10.184,18.166,20.16c0,10.08-8.367,20.793-23.873,20.793H46.462z"/>
			<path fill="#231F20" d="M100.986,51.455c0.049-0.502,0.068-1.006,0.068-1.511c0-11.398-11.102-20.674-24.75-20.674
				c-8.861,0-16.922,3.992-21.299,10.152c-0.755-0.072-1.513-0.109-2.274-0.109c-9.806,0-14.744,6.796-15.394,14.739
				c-12.343,1.933-16.671,10.484-16.671,17.903c0,10.381,5.498,21.447,25.795,21.447H60.56v-1H46.462
				c-21.574,0-24.795-12.811-24.795-20.447c0-3.387,1.141-14.616,15.826-16.915l0.778-0.122l0.064-0.785
				c0.547-6.681,4.616-13.82,14.397-13.82c0.719,0,1.452,0.035,2.179,0.104l0.576,0.056l0.335-0.472
				c4.264-6.003,12.113-9.731,20.483-9.731c13.096,0,23.75,8.826,23.75,19.674c0,0.518-0.021,0.98-0.063,1.414l-0.094,0.948
				l0.943,0.138c10.113,1.481,17.738,9.936,17.738,19.666c0,9.838-8.191,20.293-23.373,20.293H79.186v1h16.021
				c15.543,0,24.373-10.784,24.373-21.293C119.58,61.788,111.633,53.015,100.986,51.455z"/>
		</g>
	</g>
	<g>
		<g>
			<path fill="#FFFFFF" d="M82.83,99.149h-2.395V92.44l-5.25-5.438l1.25,16.146h5.188l-11.188,7.854l-7.25-6.938l4.875-0.916
				L67.748,92.44l-7.813-0.381v7.09h-2.561c-1.421,0-2.69,0.848-3.233,2.16c-0.544,1.313-0.246,2.811,0.758,3.814l12.729,12.729
				c0.661,0.661,1.54,1.025,2.475,1.025s1.813-0.364,2.474-1.025l12.729-12.729c1.006-1.004,1.303-2.501,0.76-3.814
				C85.52,99.997,84.252,99.149,82.83,99.149z"/>
			<path d="M82.83,98.649h-1.895V92.44h-1v7.209h2.895c1.213,0,2.307,0.73,2.771,1.852s0.209,2.412-0.65,3.27l-12.729,12.729
				c-0.562,0.563-1.325,0.879-2.121,0.879s-1.559-0.316-2.121-0.879l-12.729-12.729c-0.858-0.857-1.114-2.148-0.65-3.27
				s1.558-1.852,2.771-1.852h3.061V92.44h-1v6.209h-2.061c-1.624,0-3.074,0.969-3.695,2.469c-0.622,1.501-0.281,3.212,0.867,4.359
				l12.729,12.729c0.756,0.756,1.76,1.172,2.828,1.172s2.072-0.416,2.828-1.172l12.729-12.729c1.148-1.147,1.488-2.858,0.867-4.359
				C85.904,99.618,84.453,98.649,82.83,98.649z"/>
		</g>
		<path fill="#B1DFEA" d="M27.928,68.316c-0.2,1.019-0.261,1.934-0.261,2.64c0,10.914,6.997,16.447,20.795,16.447h16.973v15.496
			h-6.061l11.811,11.417l11.75-11.812l-4,0.062V87.403h18.271c12.584,0,17.729-11.921,15.729-19.921
			C91.768,69.982,27.928,68.316,27.928,68.316z"/>
		<path fill="none" stroke="#2AAEC7" stroke-miterlimit="10" d="M113.225,65.982H27.067c-1.156,2.271-1.4,4.547-1.4,5.974
			c0,10.914,6.997,16.447,20.795,16.447h16.973v14.246h-6.061l12.728,12.729l12.728-12.729h-5.895V88.403h18.271
			c12.584,0,19.373-8.395,19.373-16.293C114.58,69.954,114.09,67.884,113.225,65.982z"/>
	</g>
	<ellipse fill="#2AAEC7" cx="70.102" cy="66.232" rx="43.125" ry="1.625"/>
</g>
</svg>
