<?xml version="1.0" encoding="utf-8"?>
<!-- Generator: Adobe Illustrator 16.0.0, SVG Export Plug-In . SVG Version: 6.00 Build 0)  -->
<!DOCTYPE svg PUBLIC "-//W3C//DTD SVG 1.1//EN" "http://www.w3.org/Graphics/SVG/1.1/DTD/svg11.dtd">
<svg version="1.1" id="Layer_1" xmlns="http://www.w3.org/2000/svg" xmlns:xlink="http://www.w3.org/1999/xlink" x="0px" y="0px"
	  viewBox="0 0 141.73 141.73" enable-background="new 0 0 141.73 141.73" xml:space="preserve">
<g>
	<circle fill="#DFE2E1" cx="70.865" cy="70.865" r="67"/>
	<g>
		<path fill="none" stroke="#231F20" stroke-miterlimit="10" d="M95.207,96.403c15.543,0,24.373-10.784,24.373-21.293
			c0-10.322-7.947-19.096-18.594-20.655c0.049-0.502,0.068-1.006,0.068-1.511c0-11.398-11.102-20.674-24.75-20.674
			c-8.861,0-16.922,3.992-21.299,10.152c-0.755-0.072-1.513-0.109-2.274-0.109c-9.806,0-14.744,6.796-15.394,14.739
			c-12.343,1.933-16.671,10.484-16.671,17.903c0,10.381,5.498,21.447,25.795,21.447"/>
	</g>
	<path fill="#FCC485" d="M79.801,90.69l11.139-11.139c2.355-2.356,2.355-6.176,0-8.532c-2.355-2.355-6.176-2.355-8.531,0
		l-11.14,11.139L57.097,67.987c-2.356-2.354-6.176-2.354-8.532,0c-2.356,2.356-2.356,6.176,0,8.532L62.736,90.69l-13.28,13.279
		c-2.356,2.357-2.356,6.177,0,8.533c1.178,1.177,2.722,1.766,4.266,1.766s3.088-0.589,4.266-1.766l13.28-13.28l11.14,11.14
		c1.178,1.177,2.723,1.766,4.266,1.766c1.545,0,3.088-0.589,4.266-1.767c2.355-2.356,2.355-6.176,0-8.532L79.801,90.69z"/>
	<path fill="none" stroke="#FAAC49" stroke-miterlimit="10" d="M80.168,89.69l12.926-12.925c2.734-2.734,2.734-7.166,0-9.9
		c-2.734-2.732-7.166-2.732-9.9,0L70.269,79.79L57.343,66.865c-2.733-2.732-7.166-2.732-9.899,0c-2.734,2.734-2.734,7.166,0,9.9
		L60.369,89.69l-12.925,12.925c-2.734,2.734-2.734,7.166,0,9.9c1.367,1.366,3.158,2.05,4.95,2.05s3.583-0.684,4.95-2.05
		l12.925-12.925l12.925,12.925c1.367,1.366,3.158,2.05,4.951,2.05c1.791,0,3.582-0.684,4.949-2.05c2.734-2.734,2.734-7.166,0-9.9
		L80.168,89.69z"/>
	<g>
		<path fill="none" d="M47.444,102.615c-2.734,2.734-2.734,7.166,0,9.9c1.367,1.366,3.158,2.05,4.95,2.05s3.583-0.684,4.95-2.05
			l12.925-12.925l12.925,12.925c1.367,1.366,3.158,2.05,4.951,2.05c1.791,0,3.582-0.684,4.949-2.05c2.734-2.734,2.734-7.166,0-9.9
			l-6.541-6.541H53.985L47.444,102.615z"/>
		<g>
			<path fill="#FFFFFF" d="M116.988,76.328c0-9.573-7.369-17.709-17.242-19.155c0.045-0.466,0.063-0.933,0.063-1.401
				c0-10.57-10.295-19.172-22.953-19.172c-8.217,0-15.693,3.702-19.751,9.415c-0.7-0.067-1.403-0.102-2.109-0.102
				c-9.094,0-13.673,6.303-14.276,13.669c-11.446,1.792-15.46,9.723-15.46,16.603c0,9.627,5.099,19.89,23.922,19.89h0.562
				l6.384-6.384L45.322,78.887c-3.898-3.899-3.898-10.243,0-14.144c1.889-1.888,4.4-2.928,7.071-2.928s5.182,1.04,7.071,2.929
				l10.804,10.804l10.804-10.805c1.889-1.888,4.4-2.928,7.072-2.928c2.67,0,5.182,1.04,7.07,2.929
				c3.898,3.899,3.898,10.243,0,14.143L84.412,89.69l6.383,6.384h3.59C108.799,96.074,116.988,86.073,116.988,76.328z"/>
		</g>
	</g>
</g>
</svg>
