<?xml version="1.0" encoding="utf-8"?>
<!-- Generator: Adobe Illustrator 16.0.0, SVG Export Plug-In . SVG Version: 6.00 Build 0)  -->
<!DOCTYPE svg PUBLIC "-//W3C//DTD SVG 1.1//EN" "http://www.w3.org/Graphics/SVG/1.1/DTD/svg11.dtd">
<svg version="1.1" id="Layer_1" xmlns="http://www.w3.org/2000/svg" xmlns:xlink="http://www.w3.org/1999/xlink" x="0px" y="0px"
	  viewBox="0 0 141.73 141.73" xml:space="preserve">
<g>
	<circle fill="#DFE2E1" cx="70.865" cy="70.865" r="67"/>
	<g>
		<g>
			<g>
				<path fill="#D4D0DD" d="M22.349,67.982c-2.605,3.3-3.682,7.277-3.682,10.974c0,10.381,5.498,21.447,25.795,21.447h48.745
					c15.543,0,24.373-10.784,24.373-21.293c0-4.068-1.248-7.888-3.396-11.128H22.349z"/>
			</g>
		</g>
	</g>
	<g>
		<g>
			<path fill="#FFFFFF" d="M46.462,95.903c-22.009,0-25.295-13.124-25.295-20.947c0-7.186,4.268-15.534,16.247-17.409l0.389-0.061
				l0.032-0.392c0.565-6.904,4.775-14.28,14.896-14.28c0.735,0,1.484,0.036,2.226,0.107l0.288,0.028l0.167-0.236
				c4.357-6.132,12.362-9.942,20.892-9.942c13.371,0,24.25,9.05,24.25,20.174c0,0.527-0.021,1.006-0.066,1.462l-0.046,0.474
				l0.472,0.069c10.356,1.517,18.166,10.185,18.166,20.161c0,10.08-8.367,20.793-23.873,20.793H46.462z"/>
			<path fill="#231F20" d="M76.305,33.271c13.096,0,23.75,8.826,23.75,19.674c0,0.511-0.021,0.974-0.063,1.414l-0.093,0.948
				l0.943,0.138c10.112,1.481,17.738,9.936,17.738,19.666c0,9.838-8.191,20.293-23.373,20.293H46.462
				c-21.574,0-24.795-12.811-24.795-20.447c0-3.387,1.141-14.616,15.825-16.916l0.778-0.122l0.064-0.785
				c0.547-6.681,4.617-13.821,14.398-13.821c0.72,0,1.453,0.035,2.178,0.105l0.575,0.055l0.335-0.472
				C60.085,37,67.935,33.271,76.305,33.271 M76.305,32.271c-8.862,0-16.922,3.992-21.299,10.152
				c-0.754-0.072-1.513-0.109-2.273-0.109c-9.806,0-14.744,6.796-15.395,14.739c-12.342,1.933-16.67,10.484-16.67,17.903
				c0,10.381,5.498,21.447,25.795,21.447h48.745c15.543,0,24.373-10.784,24.373-21.293c0-10.322-7.947-19.096-18.594-20.655
				c0.049-0.502,0.068-1.006,0.068-1.511C101.055,41.546,89.953,32.271,76.305,32.271L76.305,32.271z"/>
		</g>
	</g>
	<g>
		<path fill="#B1DFEA" d="M68.222,104.117c-1.732,0-3.395-0.688-4.62-1.915l-17.429-17.43c-2.551-2.551-2.551-6.688,0-9.24
			c2.553-2.551,6.69-2.551,9.24,0.001l12.809,12.809l29.75-29.751c2.553-2.55,6.689-2.55,9.24,0c2.553,2.553,2.553,6.689,0,9.241
			l-34.369,34.371C71.618,103.429,69.955,104.117,68.222,104.117z"/>
	</g>
	<g>
		<path fill="none" stroke="#2AAEC7" stroke-miterlimit="10" d="M67.619,103.808c-1.856,0-3.637-0.737-4.949-2.051L43.998,83.085
			c-2.733-2.733-2.733-7.165,0-9.899c2.734-2.732,7.168-2.732,9.9,0.001l13.721,13.722L99.49,55.036
			c2.732-2.732,7.166-2.732,9.898,0c2.734,2.734,2.734,7.166,0,9.899l-36.82,36.822C71.255,103.07,69.475,103.808,67.619,103.808z"
			/>
	</g>
</g>
</svg>
