<svg xmlns="http://www.w3.org/2000/svg" width="312" height="300" viewBox="0 0 312 300">
    <g fill="none" fill-rule="evenodd">
        <circle cx="156" cy="150" r="142" fill="#9DA7A9" opacity=".3"/>
        <g transform="translate(124 100)">
            <path fill="#FFF" d="M176.395 84.356l-4-22.109-10.528-7.485V34.97L116.909.943H.97V127.06l115.94 17.046 7 16.285c1.04 1.117 2.176 1.675 3.41 1.675h9.604c3.448-.589 5.974-3.422 7.58-8.498 1.604-5.076 2.449-11.486 2.533-19.228l16.66-8.622c-.109 2.24.163 3.8.815 4.68.98 1.32 2.029 2.638 4.246 2.638h4.897c1.935 0 5.221-3.809 5.844-8.49.415-3.122.586-5.705.513-7.752l7.029-4.46V86.984l-10.645-2.628z"/>
            <path stroke="#9DA7A9" stroke-linecap="round" stroke-linejoin="round" d="M182.987 115l4.013-2.645V86.902l-10.673-2.58-3.957-22.165L165 57"/>
            <path stroke="#9DA7A9" stroke-linecap="round" stroke-linejoin="round" d="M166 81.473L172 83l-3.174-19.206L166.132 62"/>
            <ellipse cx="136.5" cy="137.5" stroke="#9DA7A9" rx="10.5" ry="24.5"/>
            <ellipse cx="132.5" cy="137.5" stroke="#9DA7A9" rx="6.5" ry="14.5"/>
            <path stroke="#9DA7A9" stroke-linecap="round" stroke-linejoin="round" d="M124.581 119.109c2.334-5.559 5.778-9.415 11.67-9.415M1 113.214V1h116M137 162h-9.153c-3.162 0-7.073-4-7.847-8"/>
            <ellipse cx="173.5" cy="119" stroke="#9DA7A9" rx="6.5" ry="14"/>
            <ellipse cx="171" cy="118.5" stroke="#9DA7A9" rx="4" ry="8.5"/>
            <path stroke="#9DA7A9" stroke-linecap="round" stroke-linejoin="round" d="M174 133h-5.502c-1.9 0-4.033-1.637-4.498-4M162 103.456V35.14L117 1.067v112.074M70 107.456V36.14"/>
            <path stroke="#9DA7A9" stroke-linecap="round" stroke-linejoin="bevel" d="M151 133c5.071-2.785 9.232-5.142 12.483-7.072.59-.691 0 1.115 0-8.72 0-9.834 4.957-17.208 10.517-17.208"/>
            <path stroke="#9DA7A9" stroke-linecap="round" stroke-linejoin="round" d="M8 112.148V28h33.121v8H74.71v-8H109v84.548"/>
            <path stroke="#9DA7A9" stroke-linecap="round" stroke-linejoin="round" d="M108.921 108H70l-14.177 5.705"/>
        </g>
        <path fill="#FFF" d="M120.474 216.114l-15.409 6.968v75.405H223.87l21.969-12.418v-69.955z"/>
        <path fill="#52A4C5" fill-opacity=".1" d="M114.932 226.312c-5.17 0-6.888 5.59-5.155 16.77 1.785-2.615 4.788-3.924 9.01-3.924 6.331 0 14.279-1.067 16.859-2.259 1.72-.795 3.974-1.37 6.762-1.726h66.45c3.296.583 4.944 2.547 4.944 5.894V280.8c0 4.352-1.44 6.528-4.322 6.528h-47.374c-2.465 3.118-5.13 4.678-7.992 4.678-2.863 0-6.765-1.043-11.706-3.129l-11.178-1.549c-4.69 1.033-8.35 1.033-10.98 0-3.946-1.549-8.805-2.801-10.473-3.883-1.111-.72-1.574-1.25-1.388-1.587v9.623c0 2.76 1.917 3.95 4.5 3.95h100.913c3.37 0 5.055-1.766 5.055-5.297v-58.753c.087-3.38-1.599-5.07-5.055-5.07h-35.553v6.892h-21.735v-6.892h-41.582z"/>
        <path fill="#52A4C5" d="M229.562 226.566c-3.117 2.703-2.071 6.476-2.071 13.707 0 7.23-1.257 48.54-.676 49.656.582 1.116 2.563 3.595 8.676 0 4.075-2.397 8.126-5.706 12.151-9.93.905-.85 1.358-3.027 1.358-6.531v-46.902c0-3.541-1.327-5.311-3.98-5.311-3.98 0-12.341 2.607-15.458 5.31zM195.72 218c-1.642 0-3.002.18-4.08.543-1.617.542-3.31 1.286-2.37 1.95.94.665 38.204.686 41.285 0 3.08-.685 2.994-2.493 1.159-2.493H195.72zM128.262 218c-1.53 0-2.798.18-3.802.543-1.507.542-3.085 1.286-2.209 1.95.877.665 35.6.686 38.47 0 2.871-.685 2.79-2.493 1.08-2.493h-33.539z" opacity=".4"/>
        <path stroke="#52A4C5" stroke-linecap="round" stroke-linejoin="round" d="M177 222.94h46.884v75.863H105v-18.037M105 249.7v-26.76h50.233M227.233 223.007l18.418-6.81v70.294l-18.418 10.626"/>
        <path stroke="#52A4C5" stroke-linecap="round" stroke-linejoin="round" d="M156.907 224.727v8.328h16.744v-8.429M237.28 216.197H120.512l-10.53 4.321"/>
        <path stroke="#52A4C5" stroke-linecap="round" stroke-linejoin="round" d="M157.377 222.07l15.018-5.873h14.652l-13.396 5.873"/>
        <g transform="translate(129 238)">
            <path stroke="#FD9800" stroke-linecap="round" stroke-linejoin="round" d="M11.904 3.357h60.747c3.455 0 6.021 2.214 6.021 5.956v32.01c0 3.047-1.243 4.974-5.03 4.974H34.114"/>
            <path stroke="#FD9800" stroke-linecap="round" stroke-linejoin="round" d="M15.232 0h60.746C79.434 0 82 2.214 82 5.956v32.01c0 3.047-.328 3.905-1.346 5.413"/>
            <path stroke="#FD9800" stroke-linecap="round" stroke-linejoin="round" d="M10.24 9.777h50.901c2.422 0 4.221 1.552 4.221 4.175V36.39c0 2.136-.872 3.487-3.525 3.487H22.48M1.984 15.068v4.997M6.976 12.558v13.497"/>
            <rect width="4.804" height="10.711" x="69.499" y="19.472" stroke="#FD9800" rx="2"/>
            <path fill="#FD9800" fill-opacity=".1" d="M64.843 6.918a4.105 4.105 0 0 1 4.172 4.066v21.94c.163 2.112-.867 3.168-3.09 3.168H16.046l-6.622-5.521V9.853l4.34-2.935h51.08z"/>
        </g>
        <g transform="translate(0 77)">
            <path fill="#FFF" d="M13.776 221.633c.681-17.45.328-31.065-1.057-40.848-2.079-14.674-7.216-32.21-9.325-41.257-2.109-9.048-4.506-26.095.928-33.877 5.433-7.782 14.597-12.803 16.946-13.884 1.565-.721 3.832-1.738 6.8-3.05l3.946-20.11C25.715 63.448 21.1 59.42 18.17 56.53c-2.93-2.89-5.436-5.727-7.518-8.51 4.05-14.733 7.264-24.246 9.64-28.539 2.376-4.292 5.794-7.619 10.252-9.979 2.534-5.068 9.028-8.095 19.48-9.083C65.706-1.063 79.76 8.083 82.582 11.93c2.822 3.848 12.893 12.018 17.337 34.003 2.964 14.657 4.059 32.309 3.286 52.957-12.725-3.57-21.679-6.247-26.862-8.034-5.183-1.786-11.592-4.35-19.227-7.691l-3.282 8.602 28.748 17.5c3.226 12.917 5.994 21.436 8.304 25.556 3.465 6.179 6.833 9.398 9.033 11.55 1.468 1.435 3.5 2.7 6.099 3.796v56.472l-92.24 14.992z"/>
            <path fill="#281F57" d="M11.915 147.83c6.275-.559 13.37-3.992 21.285-10.301 11.872-9.463 1.686 20.771 46.458 30.182 4.263-10.758 7.272-18.173 7.272-27.12 5.84-1.443 10.605-5.557 10.605-5.557-5.668-8.57-9.203-18.063-10.605-28.48L60.124 92.302a121.534 121.534 0 0 0 5.847 24.125c-4.597 1.817-16.609-4.46-36.036-18.83-13.536 4.666-21.117 10.092-22.742 16.28-1.625 6.187-.05 17.505 4.722 33.954z" opacity=".1"/>
            <path stroke="#281F57" stroke-linecap="round" stroke-linejoin="round" d="M28.162 118.895c5.248 26.424 16.653 42.853 34.213 49.285 17.56 6.433 33.247 9.007 47.062 7.722 3.16-7.865 6.491-11.616 9.993-11.251 5.253.546 12.646 0 16.632-1.218 3.986-1.217 3.3 3.893-1.47 6.214a290.736 290.736 0 0 0-8.239 4.152v11.418c1.83 2.583 5.764 6.048 11.802 10.393 9.057 6.519 15.412 9.316 22.358 12.463-3.532 6.195-9.394 4.016-16.446.582-7.053-3.434-12.515-8.947-12.515-8.947M126.589 204.328c5.07 3.158 11.147 4.737 18.234 4.737"/>
            <path stroke="#281F57" stroke-linecap="round" stroke-linejoin="round" d="M132.162 206.939c-3.124 1.356-7 1.356-11.631 0-4.631-1.357-8.765-3.883-12.402-7.58-21.184.485-42.863-4.565-65.035-15.147C9.836 168.338.983 145.939.983 117.902c0-12.3 9.004-22.041 27.014-29.226M26.82 93.512c4.184-17.653 6.748-31.246 7.692-40.78"/>
            <path stroke="#281F57" stroke-linecap="round" stroke-linejoin="round" d="M50.851 43.566c0-9.42-15.144-13.032-18.337-1.603-3.194 11.43 8.264 15.893 14.118 12.232"/>
            <ellipse cx="43.604" cy="70.439" stroke="#281F57" rx="3.354" ry="3.354"/>
            <path stroke="#281F57" stroke-linecap="round" stroke-linejoin="round" d="M13.845 221.957c1.33-27.322-1.128-51.466-7.375-72.43M77.709 118.35c4.02 5.83 6.341 11.343 6.962 16.54 1.223 10.243-6.12 23.286-8.24 37.316"/>
            <path stroke="#281F57" stroke-linecap="round" stroke-linejoin="round" d="M103.009 148.775c-10.18-7.028-17.013-20.285-20.501-39.77L54.438 92.31M70.412 21.667c8.033 3.892 14.498 9.058 19.394 15.499 0 15.63-7.16 48.417-15.626 49.47-5.645.701-11.883-.94-18.715-4.921M68.964 75.361c-7.4-2.646-10.8-7.641-10.198-14.985"/>
            <path stroke="#281F57" stroke-linecap="round" stroke-linejoin="round" d="M77.852 53.524v9.888c-1.703 1.075-3.77 1.075-6.2 0M56.932 82.734L51.59 98.856"/>
            <ellipse cx="69.116" cy="50.669" fill="#281F57" rx="1.677" ry="1.677" transform="rotate(14 69.116 50.67)"/>
            <ellipse cx="43.604" cy="50.313" stroke="#281F57" rx="1.677" ry="1.677" transform="rotate(14 43.604 50.313)"/>
            <ellipse cx="81.13" cy="56.763" fill="#281F57" rx="1.254" ry="1.258" transform="rotate(14 81.13 56.763)"/>
            <path stroke="#281F57" stroke-linecap="round" stroke-linejoin="round" d="M30.556 144.322c-8.01 5.545-15.385 8.317-22.124 8.317M94.272 132.463c-1.477 1.648-4.565 3.295-9.264 4.943"/>
            <path fill="#281F57" d="M17.084 174.078c2.278 17.525 3.416 28.896 3.416 34.112 0 7.824 1.8 8.76 7.905 10.286 6.106 1.526 47.128 2.545 47.128-3.87v-13.353c-7.822-1.313-17.257-4.355-28.305-9.126-11.049-4.772-21.097-10.788-30.144-18.049z" opacity=".1"/>
            <path stroke="#281F57" stroke-linecap="round" stroke-linejoin="round" d="M61.615 18.118c-5.943-2.847-12.51-5.576-19.702-8.185-10.788-3.914-18.36 3.112-22.32 11.434-2.64 5.548-5.6 14.537-8.882 26.967 8.158 9.364 15.238 16.133 21.242 20.308M76.154 90.257c8.246 2.933 17.164 5.688 26.754 8.267 1.495.742.877-37.104-2.433-49.384-3.309-12.28-6.506-23.855-17.036-27.756-10.53-3.9-18.308 2.009-21.25 6.838-2.941 4.83-4.636 18.206-11 15.576"/>
            <path stroke="#281F57" stroke-linecap="round" stroke-linejoin="round" d="M33.59 5.636C40.396.644 50.339-.604 63.42 1.892c19.621 3.744 35.365 25.18 38.229 53.504M18.84 93.042c14.196 13.609 28.853 23.088 43.97 28.439-4.25-9.353-6.366-18.54-6.347-27.563M43.604 67.037V55.345"/>
        </g>
    </g>
</svg>
