<svg xmlns="http://www.w3.org/2000/svg" width="312" height="300" viewBox="0 0 312 300">
    <g fill="none" fill-rule="evenodd">
        <circle cx="156" cy="150" r="142" fill="#9DA7A9" opacity=".3"/>
        <g fill="#FFF" transform="translate(127 45)">
            <circle cx="5" cy="50" r="4"/>
            <circle cx="8" cy="30" r="8"/>
            <circle cx="30" cy="12" r="12"/>
            <circle cx="63" cy="17" r="16"/>
        </g>
        <g fill="#FD9800" opacity=".2" transform="translate(127 45)">
            <circle cx="5" cy="50" r="4"/>
            <circle cx="8" cy="30" r="8"/>
            <circle cx="30" cy="12" r="12"/>
            <circle cx="63" cy="17" r="16"/>
        </g>
        <g stroke="#FD9800" transform="translate(129 43)">
            <circle cx="5" cy="50" r="4"/>
            <circle cx="8" cy="30" r="8"/>
            <circle cx="30" cy="12" r="12"/>
            <circle cx="63" cy="17" r="16"/>
        </g>
        <g fill="#FFF" transform="translate(167 78)">
            <circle cx="58" cy="27" r="24"/>
            <circle cx="93" cy="24" r="24"/>
            <circle cx="116" cy="53" r="24"/>
            <ellipse cx="106.5" cy="90" rx="30.5" ry="30"/>
            <circle cx="66" cy="95" r="24"/>
            <circle cx="42" cy="61" r="24"/>
            <circle cx="77" cy="64" r="24"/>
            <circle cx="24" cy="90" r="24"/>
        </g>
        <path fill="#FD9800" d="M210.655 181.776C206.314 187.959 199.13 192 191 192c-13.255 0-24-10.745-24-24 0-11.418 7.973-20.974 18.656-23.403A24.064 24.064 0 0 1 185 139c0-11.355 7.886-20.869 18.48-23.362A23.902 23.902 0 0 1 201 105c0-13.255 10.745-24 24-24a23.912 23.912 0 0 1 16.103 6.203C245.496 81.6 252.328 78 260 78c13.255 0 24 10.745 24 24 0 1.716-.18 3.39-.523 5.005C296.512 107.259 307 117.905 307 131c0 7.665-3.593 14.49-9.187 18.884C301.696 154.918 304 161.194 304 168c0 16.569-13.655 30-30.5 30-8.76 0-16.657-3.632-22.22-9.449-4.402 5.17-10.958 8.449-18.28 8.449-10.157 0-18.841-6.31-22.345-15.224z" opacity=".2"/>
        <path stroke="#FD9800" d="M213.655 179.776C209.314 185.959 202.13 190 194 190c-13.255 0-24-10.745-24-24 0-11.506 8.096-21.12 18.903-23.458A24.018 24.018 0 0 1 188 136c0-11.355 7.886-20.869 18.48-23.362A23.902 23.902 0 0 1 204 102c0-13.255 10.745-24 24-24a23.912 23.912 0 0 1 16.103 6.203C248.496 78.6 255.328 75 263 75c13.255 0 24 10.745 24 24 0 1.717-.18 3.391-.523 5.006.174-.004.348-.006.523-.006 13.255 0 24 10.745 24 24 0 7.708-3.634 14.567-9.281 18.958A30.367 30.367 0 0 1 308 165.5c0 16.845-13.655 30.5-30.5 30.5-9.004 0-17.096-3.901-22.68-10.106C250.426 191.44 243.629 195 236 195c-10.157 0-18.841-6.31-22.345-15.224z"/>
        <g>
            <path fill="#FFF" d="M202.72 290.194c-6.633-1.961-11.897-3.173-17.483-4.231-3.723-.706-6.43-1.103-8.12-1.192-.368-4.293-1.304-6.876-2.81-7.749-1.506-.873-2.93-1.194-4.275-.961v-10.183h-1.864l.74-45.601c-.095-3.756-1.139-6.231-3.133-7.426-1.993-1.196-7.258-1.597-15.792-1.205l46.078-12.32c10.65-.16 16.92-.698 18.81-1.614 2.833-1.374 4.923-5.113 5.736-6.325.815-1.213-5.057-3.918-2.987-5.085 2.07-1.167 2.822-1.912 1.443-3.113-.834-.726-4.666-.976-11.495-.75-4.578.905-7.139 1.846-7.68 2.822-.543.976-2.811 3.222-6.805 6.739l-24.176 2.477c-4.1-.972-7.544-3.049-10.334-6.229-4.186-4.77-5.032-14.214-5.032-20.988 0-6.774-2.737-14.418-5.079-17.602a72.07 72.07 0 0 0-5.082-6.158l5.082-7.188c4.078 4.792 7.983 7.188 11.715 7.188s7.646-3.692 11.742-11.078c1.634.738 2.908 1.108 3.824 1.108 1.373 0 2.38-4.03 3.034-8.283.654-4.254.61-5.567 2.16-7.49 1.034-1.28 3.494-5.138 7.38-11.573 5.993.148 9.463-2.66 10.409-8.423 1.419-8.644-.645-13.997-7.067-16.614-4.281-1.745-7.855-1.745-10.722 0-5.167-4.625-11.299-6.576-18.396-5.853-10.645 1.085-17.87 5.239-20.611 13.853-1.827 5.743-2.963 10.523-3.406 14.341-2.582 2.347-3.873 4.865-3.873 7.555 0 2.69.727 4.929 2.18 6.715l-10.336 13.328c-8.121.655-13.78 4.437-16.977 11.345-4.795 10.363-21.12 56.943-23.7 63.681-2.578 6.739-5.787 19.832-3.3 25.215 1.657 3.589 9.073 20.056 22.25 49.402l-19.817 3.347v14.923H119c5.937-.434 9.297-2.715 10.079-6.843 1.172-6.193-.485-14.199-4.808-25.474-2.881-7.517-6.544-17.286-10.987-29.308l37.645-7.579v42.236l-3.283 1.489v7.209l4.487-1.167v2.31c-2.99-.094-4.487 1.27-4.487 4.09 0 4.232-1.65 9.512.816 11.693 1.645 1.454 11.75 1.902 30.315 1.344h30.577c0-4.562-2.21-7.497-6.633-8.805z"/>
            <path stroke="#281F57" stroke-linecap="round" stroke-linejoin="round" d="M116.37 154.324c6.267-2.488 12.311.072 16.38 8 2.713 5.286 8.304 16.89 16.773 34.815 24.381-3.087 38.291-4.913 41.73-5.48 5.16-.85 6.951-5.14 8.924-6.932 1.316-1.194 3.857-1.801 7.624-1.821 5.45-.13 8.68-.195 9.691-.195 1.517 0 2.274.62 2.274 2.016 0 .93-2.9 2.146-8.702 3.648"/>
            <path stroke="#281F57" stroke-linecap="round" stroke-linejoin="round" d="M114.967 173.688c11.287 22.168 17.394 34.117 18.323 35.847 1.392 2.595 3.638 4.913 7.964 4.413 4.327-.501 49.488-14.558 56.934-14.558 7.447 0 14.768-.83 16.658-1.614 1.26-.522 3.367-2.828 6.32-6.92"/>
            <path stroke="#281F57" stroke-linecap="round" stroke-linejoin="round" d="M126.345 130.863c-7.053 0-12.558 3.778-16.516 11.334-5.936 11.333-25.349 66.287-27.123 74.78-1.775 8.494-1.713 19.807 7.445 21.994 6.105 1.459 25.965-1.522 59.58-8.942"/>
            <path stroke="#281F57" stroke-linecap="round" stroke-linejoin="round" d="M109.987 220.997c22.561-4.965 36.305-7.905 41.232-8.82 7.39-1.374 17.654-3.108 17.654 8.82 0 7.952-.298 22.955-.895 45.01M150.89 222.319v49.9M147.779 273.277v7.653l22.406-7.653v-7.57zM84.977 235.988l19.796 44.716M113.184 238c7.853 20.78 12.452 32.921 13.797 36.425 2.018 5.257 3.471 13.861 1.736 19.098-1.736 5.237-6.38 5.832-10.977 5.832H73M114.465 278.962l-44.447 7.704M68.348 281l4.724 18.23h-7.055L61 283.768zM56.132 287.508c-.305-5.364-1.665-8.981-4.08-10.852-3.621-2.806-6.224-3.183-8.603-2.086-1.587.732-4.218 3.217-7.894 7.457-18.927 7.386-29.274 11.435-31.04 12.146-2.649 1.067-1.93 5.438 2.996 5.438h42.796c4.922 0-1.455-4.196-2.673-7.307-1.22-3.111.59-5.498 5.937-5.498M147.737 284.706c-.983 6.384-.983 10.38 0 11.988 1.474 2.411 1.93 2.473 12.258 2.473h49.502c.951-4.63-2.283-7.91-9.702-9.839a215.86 215.86 0 0 0-22.872-4.622c-.167-5.698-2.03-8.546-5.593-8.546-5.343 0-7.55 2.86-7.55 4.783 0 1.923.058 7.49-5.055 7.49-3.408 0-5.311-1.175-5.709-3.523M123.052 188.233c7.81-1.295 13.802-5.914 17.975-13.858M143.51 143.538c6.856 6.583 10.283 16.105 10.283 28.566 0 12.46 5.316 19.923 15.947 22.388"/>
            <g transform="rotate(11 -276.394 739.904)">
                <path stroke="#281F57" stroke-linecap="round" stroke-linejoin="round" d="M.111 72.401c3.39 5.1 10.195 8.806 20.411 11.12M9.615 35.295C8.5 17.917 12.108 8.077 26.546 4.082 37.105 1.16 44.821 2.87 49.695 9.215"/>
                <path stroke="#281F57" stroke-linecap="round" stroke-linejoin="round" d="M46.228 5.763c4.337-2.933 9.001-3.198 13.992-.796 7.485 3.603 10.652 19.787 1.622 23.206-9.029 3.42-20.815-.188-28.097-8.299 0 0 3.305 14.574-11.5 20.37-1.368-7.757-14.192-8.562-15.127 1.307-.934 9.869 9.02 11.903 13.243 8.05M38.623 63.751c-4.822-1.341-7.678-4.586-8.568-9.736"/>
                <circle cx="45.837" cy="45.483" r="1.5" fill="#281F57" transform="rotate(4 45.837 45.483)"/>
                <path stroke="#281F57" stroke-linecap="round" stroke-linejoin="round" d="M.117 72.384c0-.7 3.394-8.055 10.18-22.063M18.038 82.721c0-.588 2.295-5.818 6.885-15.691M23.197 64.149c2.644 3.368 6.498 5.68 11.564 6.934 5.065 1.253 9.428-3.108 13.09-13.084M58.65 29.656c-3.935 9.53-5.901 15.023-5.901 16.479 0 2.184.734 9.726-.18 11.24-.914 1.515-2.291 1.515-6.08 0"/>
            </g>
            <path fill="#281F57" d="M85.893 216.057c-.799 2.566-.273 5.316 3.422 5.316 3.695 0 25.36-3.687 31.009-5.316 5.648-1.628 13.73-4.558 13.73-7.588 0-3.03-2.145-8.634-3.847-12.042-1.702-3.409-6.838-10.127-5.548-11.424 1.29-1.296 4.456.1 9.394-5.006 4.939-5.106 5.786-9.535 7.354-9.535 1.567 0 1.817 5.007 2.64 6.81.823 1.802 3.518 1.23 6.824-1.15 3.306-2.378 5.129-4.03 5.129-7.07 0-3.038-.573-11.487-2.24-16.01-1.666-4.522-4.178-9.528-5.65-9.528-1.472 0-2.32.256-3.175 1.978-.856 1.722-2.923 4.508-4.205 4.508-1.28 0-6.38-2.411-8.897-4.508-2.516-2.097-7.174-5.898-7.174-7.981s4.658-5.633 4.658-7.177c0-1.544-6.375-1.775-13.682 7.177-7.306 8.952-28.943 75.98-29.742 78.546z" opacity=".2"/>
            <path fill="#52A4C5" d="M114.756 217.416a4022.76 4022.76 0 0 1-25.957 4.47c-2.585.901-3.877 2.476-3.877 4.724 0 3.372 1.137 11.132 14.917 9.547 9.186-1.057 25.614-3.85 49.285-8.381 2.658-.295 3.987.6 3.987 2.684v35.442c.015 2.602-.646 3.903-1.983 3.903-2.004 0-1.231 3.91-1.231 5.11 0 1.2.855 2.312 2.495 2.312 1.64 0 15.91-6.122 17.68-6.122 1.77 0 2.282-3.022 2.282-3.022v-3.374c0-.737-.84-1.108-2.282-1.108-1.442 0-.787-2.959-1.114-3.919-.328-.96 3.155-36.13 2.135-41.548-1.021-5.417-1.613-11.3-14.744-9.11-13.13 2.19-30.808 6.491-41.593 8.392z" opacity=".2"/>
            <path fill="#52A4C5" d="M116.67 239.144c-1.05-2.012-2.026-4.904-5.365-4.119-3.338.786-13.117 1.994-15.675 1.994s-6.132.982-4.345 5.349c1.787 4.366 12.633 29.43 13.648 31.565 1.014 2.134.319 4.489-2.292 4.489-2.61 0-24.98 3.891-26.91 4.539-1.928.648-3.807-.076-4.466-1.227-.66-1.15-.672-4.328-3.442-3.312-2.77 1.016-5.218 2.291-4.352 4.539.865 2.247 2.982 10.863 4.352 11.859 1.37.995 2.43 1.448 5.17 1.448h48.603c3.425 0 11.474-2.334 9.813-12.335-1.662-10-13.69-42.777-14.74-44.789z" opacity=".4"/>
        </g>
    </g>
</svg>
