<svg xmlns="http://www.w3.org/2000/svg" width="312" height="300" viewBox="0 0 150 150">
		<g fill="none" fill-rule="evenodd">
			<circle cx="75" cy="75" r="75" fill="#E9E9E9" />
			<path fill="#1AB5C5" d="M124 120l-25 17H19v-30.969L3 115.17 19 87l25-17h80l24 25-24 16.32z" />
			<g fill="#000">
				<path fill-opacity=".3" d="M44 72h74L96.345 87H44z" />
				<path fill-opacity=".15" d="M44 72L22 87h22zM19 87L3 115l16-9zM124 113L99 87v50l25-17z" />
			</g>
			<path fill="#BCC7C4" d="M56.762 10.53l32-1.524A5 5 0 0 1 94 14v29.513a5 5 0 0 1-5.238 4.994l-32-1.524A5 5 0 0 1 52 41.99V15.524a5 5 0 0 1 4.762-4.994z"
			/>
			<path fill="#BCC7C4" d="M70 35l9 13-5 11h-3.005L66 47z" />
			<path fill="#FFF" d="M70 35l6 12-5 12-5-12z" />
			<path fill="#FFF" d="M56.737 10.507l28-1.474A5 5 0 0 1 90 14.026v27.73a5 5 0 0 1-5 5H57a5 5 0 0 1-5-5V15.5a5 5 0 0 1 4.737-4.993z"
			/>
			<g fill="#7B8885" transform="translate(57 24)">
				<circle cx="1.5" cy="2.5" r="1.5" />
				<circle cx="23.5" cy="1.5" r="1.5" />
				<path fill-rule="nonzero" d="M17.8 9.773C16.444 11.788 14.31 13 11.998 13 9.688 13 7.56 11.792 6.2 9.783c-.331-.49-.242-1.185.2-1.553.442-.367 1.069-.268 1.4.222.985 1.457 2.525 2.33 4.197 2.33 1.675 0 3.217-.876 4.202-2.337.33-.49.957-.59 1.4-.224.442.367.533 1.062.202 1.552z"
				/>
			</g>
		</g>
	</svg>
