<svg xmlns="http://www.w3.org/2000/svg" width="312" height="300" viewBox="0 0 312 300">
    <g fill="none" fill-rule="evenodd">
        <circle cx="156" cy="150" r="142" fill="#9DA7A9" opacity=".3"/>
        <path fill="#FFF" d="M205.794 299.706c-4.534 0-6.185-1.452-7.738-4.918-1.034-2.311-1.766-6.614-2.194-12.91l-1.419 1.258c-2.838-2.307-4.257-4.343-4.257-6.107 0-1.764.531-3.146 1.595-4.146-12.394-24.756-19.604-38.972-21.63-42.646-2.027-3.675-5.719-10.146-11.077-19.412-3.048 4.124-5.998 7.024-8.849 8.702-2.85 1.678-7.456 3.73-13.817 6.154-7.349-6.47-12.046-10.564-14.093-12.28-2.046-1.717-5.374-5.313-9.984-10.788-1.442 6.684-2.876 11.004-4.302 12.957-2.14 2.931-3.005 3.957-4.644 3.957-1.64 0-5.81-3.065-4.594-10.537 1.216-7.471 2.719-10.69 2.719-13.124 0-2.435-4.57-7.211-2.719-11.776 1.852-4.564 7.35-6.43 10.445-4.937 2.063.994 3.54 2.885 4.43 5.67l.716 3.256 23.64 20.911c.98-3.373 2.137-5.998 3.47-7.877 1.334-1.879 3.374-4.712 6.12-8.501-3.472-5.142-5.939-9.245-7.4-12.31-2.19-4.597-2.658-7.747-1.329-18.148 1.33-10.4.752-28.494-.862-40.319-1.613-11.824-2.065-17.804-13.21-20.302-11.145-2.497-30.87-7.444-46.318-19.187-15.449-11.744-28.559-22.713-32.565-28.648-2.671-3.956 1.827-8.415 13.493-13.377-1.31 4.164-.144 8.313 3.5 12.445 5.464 6.198 32.605 23.645 47.248 28.09 9.761 2.964 16.69 4.817 20.786 5.56h4.232c-.193-5.376-.946-9.577-2.26-12.6-1.315-3.023-3.794-6.287-7.439-9.793-3.488 1.509-6.21 1.213-8.169-.887-2.937-3.151-.88-7.676-.44-8.376.293-.467 1.397-1.278 3.31-2.434-.939-5.46.257-9.23 3.589-11.308 3.331-2.079 5.044-3.316 5.14-3.71.424-2.965 1.103-4.448 2.037-4.448 1.402 0 3.011-.38 4.232 1.817.814 1.465 1.517 2.46 2.11 2.986 3.684-.233 6.574.38 8.67 1.839 3.146 2.189 6.94 8.968 7.384 16.085.297 4.745-.588 8.89-2.653 12.438.787 5.304 1.544 8.768 2.27 10.393s1.952 3.645 3.678 6.06c3.472-2.411 7.016-3.963 10.63-4.654 3.615-.69 7.154-.837 10.619-.439 13.1-8.294 21.168-14.878 24.204-19.75 4.555-7.309 9.102-15.431 9.102-16.673 0-1.24 1.565-2.46 0-4.646-1.565-2.187-2.672-4.285-1.848-7.375.825-3.091 3.906-7.404 4.456-6.847.367.372.866 1.398 1.496 3.079 2.384-4.028 4.004-5.857 4.862-5.487 1.287.553 4.122 2.01 3.618 7.5-.504 5.491-3.873 9.851-5.225 11.135-1.352 1.283-3.85 5.657-4.75 8.831-.902 3.174-8.65 19.095-12.202 24.664-3.552 5.57-12.07 16.082-13.67 17.313-1.066.82-2.946 2.497-5.641 5.032 3.004 9.266 4.884 16.197 5.642 20.794 1.136 6.895 2.247 26.596 2.247 29.16 0 2.562-1.884 19.57-5.476 28.499-2.395 5.952-6.024 12.716-10.886 20.29 8.147 19.731 13.41 32.7 15.79 38.905 2.38 6.206 5.776 15.731 10.189 28.577 2.502-4.362 5.028-6.542 7.576-6.542 3.822 0 6.997 3.356 7.462 7.214.464 3.857.076 12-2.706 16.473-2.782 4.474-2.782 9.722-2.782 11.185 0 1.463.976 8.99-3.559 8.99z"/>
        <path stroke="#281F57" stroke-linecap="round" stroke-linejoin="round" d="M138.295 125.67c0-1.663-.76-10.993-1.352-12.664-4.784-13.522-6.303-8.397-32.046-16.894-25.742-8.496-55.891-36.96-62.006-46.725-6.114-9.765-5.928-17.657-6.82-24.676-.892-7.018.417-9.981 2.7-9.981"/>
        <path stroke="#281F57" stroke-linecap="round" stroke-linejoin="round" d="M40.8 24.573c-1.724-8.49-2.155-14.662-1.293-18.517C40.369 2.2 42.527.462 45.98.84l1.107 10.897M47.542 14.965c-.66-3.96-.18-6.694 1.439-8.2 2.428-2.26 3.987 1.446 3.987 4.1s1.606 14.424 3.561 17.934M51.453 35.528c3.483-4.895 7.347-8.121 11.592-9.677 6.367-2.334 7.38.127 7.38 1.84 0 1.714-8.323 5.276-10.152 10.353-1.829 5.077-1.32 11.292 5.025 17.164 6.346 5.873 35.799 26.878 66.488 31.24M105.67 96.255c3.847-4.104 5.468-10.094 4.863-17.968"/>
        <path stroke="#281F57" stroke-linecap="round" stroke-linejoin="round" d="M124.282 89.444c4.448-2.937 8.813-3.916 13.095-2.937 6.424 1.469 14.503 5.921 22.34-1.421M156.894 84.002c7.803-4.512 15.12-5.918 21.95-4.218"/>
        <path stroke="#281F57" stroke-linecap="round" stroke-linejoin="round" d="M177.568 79.574c10.365-6.362 17.57-11.825 21.617-16.39 6.07-6.848 12.568-20.154 12.568-22.867 0-2.713-2.676-3.555-2.676-6.529 0-2.974.8-3.834 2.148-6.816 1.348-2.981 3.3-3.936 3.3-.837 0 2.066-.403 3.638-1.21 4.716 1.726.407 2.854 1.647 3.385 3.721"/>
        <path stroke="#281F57" stroke-linecap="round" stroke-linejoin="round" d="M214.636 27.673c1.908-1.683 3.181-7.07 6.305-5.543 3.123 1.526 2.765 6.389 2.399 8.795-.366 2.407-1.858 7.199-5.357 9.972-3.5 2.773-4.877 13.016-12.352 26.063-7.475 13.047-14.05 21.23-23.2 29.057M180.953 93.246c3.66 9.775 6.05 18.696 7.171 26.763.18 1.298.352 2.714.514 4.218M37.083 33.783c.752-2.847 2.471-5.1 5.159-6.76 2.687-1.66 5.449-2.359 8.286-2.096M135.121 86.051c.041-4.782-.745-8.993-2.36-12.632-1.613-3.64-4.007-6.802-7.18-9.487M122.35 52.489c-3.707 0-6.799 2.333-6.799 6.283s3.344 6.092 6.8 6.092c3.454 0 4.66-2.895 5.112-4.126"/>
        <path stroke="#281F57" stroke-linecap="round" stroke-linejoin="round" d="M120.007 52.666c-.195-4.08.301-7.075 1.489-8.983 1.188-1.909 3.67-3.934 7.45-6.075.415-3.218 1.438-4.827 3.07-4.827 1.63 0 3.19 1.61 4.679 4.827 4.2.209 7.171.817 8.911 1.826 2.61 1.512 4.731 3.197 6.881 11.84 1.433 5.763.888 11.291-1.637 16.586.518 5.135 1.448 9.102 2.79 11.9 1.341 2.797 2.878 4.959 4.61 6.484M186.55 73.946c-.15 2.74.644 5.374 2.382 7.904 1.738 2.529 3.414 4.423 5.027 5.683"/>
        <path stroke="#281F57" stroke-linecap="round" stroke-linejoin="round" d="M147.163 44.205c-.626 1.483-1.981 2.225-4.064 2.225s-5.882-.993-11.399-2.98c.205 2.768 1.084 5.214 2.636 7.336 2.328 3.184 5.447 5.227 9.137 4.514 2.46-.476 3.69-4.174 3.69-11.095zM155.366 168.067c10.79-1.043 19.215-2.992 25.271-5.85 6.057-2.856 9.205-8.142 9.446-15.857"/>
        <g stroke="#281F57" stroke-linecap="round" stroke-linejoin="round">
            <path d="M159.177 210.593c-4.329 5.46-8.794 9.28-13.396 11.46-4.601 2.18-7.908 3.321-9.92 3.423-8.115-6.946-14.34-12.814-18.676-17.602-6.504-7.183-12.344-13.999-10.716-17.133 1.085-2.09 2.733-3.02 4.943-2.79M113.673 188.145l24.345 20.602M137.624 211.3c.496-4.95 3.762-11.135 9.798-18.555"/>
            <path d="M114.153 188.097c-.283-3.262-1.158-5.505-2.625-6.73-2.202-1.835-7.254-2.372-10.267 1.091-3.012 3.464-1.946 7.651-.973 10.041.973 2.39 1.845 4.648 0 8.837-1.844 4.19-2.623 15.435 2.313 17.868 3.291 1.621 6.567-3.913 9.829-16.605M173.893 194.884c4.667-7.023 7.927-13.003 9.782-17.94 2.225-5.923 4.515-15.642 5.502-24.19"/>
        </g>
        <g stroke="#281F57" stroke-linecap="round" stroke-linejoin="round">
            <path d="M139.44 147.34c0 9.285-.788 12.216-1.403 22.907-.643 11.171 8.294 18.312 22.636 43.115 6.447 11.15 16.684 30.904 30.71 59.26M168.542 181.946c5.754 14.583 10.573 26.309 14.459 35.177 3.885 8.868 9.367 24.07 16.446 45.605M198.52 265.304c-4.3 3.706-6.95 6.939-7.949 9.7-.999 2.761.193 5.507 3.575 8.237l1.98-2.48"/>
            <path d="M214.341 273.12c-.664 3.897-2.808 6.42-3.824 9.94-1.016 3.522-1.848 8.046-1.047 11.44.8 3.394-1.65 5.368-4.607 5.368-2.957 0-7.91-2.654-8.686-13.489-.776-10.834 1.128-17.686 2.563-21.467 1.436-3.782 4.025-10.11 10.73-8.588 6.705 1.522 5.535 12.9 4.871 16.796z"/>
        </g>
        <path fill="#281F57" d="M111 94.043c0 2.672 9.767 4.243 16 5.991 6.232 1.748 10.319 2.62 12.436 10.205 2.117 7.583 2.822 31.808 2.822 36.928 0 5.12-1.833 15.926 0 17.273 1.833 1.346 8.56 3.879 24.561 1.323 16-2.556 23.14-6.997 25.203-14.296 2.063-7.3-.219-31.497-2.154-39.92a150.83 150.83 0 0 0-4.757-16.419c3.184-2.945 5.132-4.791 5.843-5.537 1.068-1.12 2.546-2.136 2.546-4.879 0-2.742-1.459-2.965-2.546-5.672-1.086-2.706-1.483-4.137-3.074-4.925-1.061-.525-3.29.748-6.688 3.82-2.622-.737-5.673-.737-9.153 0-3.48.737-7.668 2.244-12.563 4.52l1.955 2.257c-1.765 2.095-4.365 3.143-7.8 3.143-5.151 0-9.532-1.817-12.362-2.48-1.887-.442-4.45-.442-7.69 0-3.898-1.034-6.957-1.779-9.178-2.235-3.33-.684-6.704-2.17-8.835-1.43-2.13.739-1.898 3.01-2.737 5.445-.84 2.436-1.829 4.216-1.829 6.888z" opacity=".2"/>
        <g>
            <path fill="#FFF" d="M13.4 186.917c5.864 2.452 16.429 3.678 31.696 3.678 22.9 0 42.426-6.206 46.137-8.103 3.71-1.897 12.104-8.737 13.543-11.5.96-1.843 1.737-4.247 2.331-7.214-3.579-4.939-4.356-9.878-2.33-14.817 3.037-7.41 11.79-15.033 16.384-16.919 3.063-1.257 9.653-3.224 19.77-5.9 1.883 4.298 2.824 8.15 2.824 11.554v10.121c-7.75.059-14.265.74-19.544 2.045-7.919 1.958-10.721 3.972-12.264 5.345-1.028.916-1.783 1.97-2.263 3.162 3.72 4.024 5.58 7.789 5.58 11.294 0 5.259.637 13.226-10.488 18.394-11.125 5.168-20.606 8.92-36.798 10.08-16.192 1.162-29.003 0-34.187 0-3.457 0-9.927-1.32-19.413-3.964l-.978-7.256zM171.967 144.229c.71-5.347 1.064-8.798 1.064-10.353 0-1.554-.354-5.298-1.064-11.23 13.755 1.08 23.004 2.745 27.748 4.996 7.116 3.376 18.892 10.377 21.134 14.767 2.241 4.39 3.192 9.504 1.596 12.214-1.064 1.807-3.53 4.243-7.4 7.31-1.478 4.062.988 7.982 7.4 11.76 9.616 5.669 24.73 15.035 44.716 17.834a187.893 187.893 0 0 0 39.984 1.324l-2.305 5.672c-7.105 1.915-16.466 2.393-28.082 1.436-17.424-1.436-30.75-1.09-48.353-9.38-17.604-8.29-21.83-12.897-23.02-15.822-1.19-2.924-1.396-10.272 0-14.593.93-2.88 2.126-5.828 3.588-8.844-5.182-2.718-10.325-4.353-15.429-4.904-5.104-.551-12.296-1.28-21.577-2.187z"/>
            <path stroke="#FD9800" stroke-linecap="round" stroke-linejoin="round" d="M143.584 147.57c.562-2.426.562-6.159 0-11.199-.563-5.04-1.4-8.457-2.509-10.252-9.414 1.114-17.087 3.705-23.018 7.772-8.897 6.1-14.004 12.794-14.004 20.093 0 7.3 2.11 9.533 6.17 11.982 4.06 2.448 5.06 6.066 4.35 11.461-.71 5.395-6.137 10.837-28.343 17.434-22.206 6.597-54.195 3.815-69.984 0"/>
            <path stroke="#FD9800" stroke-linecap="round" stroke-linejoin="round" d="M143.426 147.733c-6.831-.233-13.732.578-20.703 2.434-10.455 2.785-14.927 7.241-16.065 15.15-1.138 7.91-10.85 16.495-20.53 18.884-9.68 2.389-42.442 11.386-71.382 3.386M171.953 144.33c.932-4.663 1.243-8.79.932-12.38-.31-3.59-.622-6.686-.932-9.284 11.74.903 21.178 2.733 28.316 5.491 10.706 4.137 17.732 10.403 19.88 13.132 2.15 2.729 4.685 8.84 1.517 14.434-3.168 5.593-10.566 7.432-13.893 11.402-3.327 3.969-3.52 8.55 1.86 12.758 5.382 4.209 20.572 13.387 38.769 17.134 18.197 3.748 47.484 4.217 55.584 1.324"/>
            <path stroke="#FD9800" stroke-linecap="round" stroke-linejoin="round" d="M172.026 144.406c16.184 1.053 26.68 2.55 31.488 4.495 7.211 2.915 12.594 6.056 14.135 10.968M214.764 162.195c-1.06 4.08 3.114 8.912 12.524 14.498 14.114 8.38 44.291 20.434 77.853 15.817M209.002 151.406c-4.87 9.603-5.95 17.394-3.24 23.37"/>
            <path fill="#FD9800" fill-opacity=".4" d="M214.613 158.485c0 1.869-1.843 2.778-3.61 3.403-1.766.624-4.001 1.23-5.536 4.307-1.535 3.078-1.535 5.225-2.989 5.225-1.453 0-1.66-2.11-1.66-3.407 0-1.297.596-5.438 1.66-8.406 1.065-2.967 3.32-5.967 5.318-5.967 1.997 0 6.817 2.977 6.817 4.845z"/>
            <path stroke="#FD9800" stroke-linecap="round" stroke-linejoin="round" d="M114.455 178.498c1.968-8.105.376-14.867-4.775-20.288"/>
            <path fill="#FD9800" fill-opacity=".4" d="M108.957 162.811c.827 1.434 2.154 1.458 3.536 2.39 1.382.933 1.736 2.17 3.096 2.17s.34-2.932-.437-4.56c-.776-1.628-1.542-3.433-3.501-3.433-1.96 0-3.521 2-2.694 3.433z"/>
            <path fill="#FD9800" fill-opacity=".2" d="M146.002 139.51c.25 2.296-.976 3.647-3.676 4.053-4.05.61-17.638 1.232-23.413 4.558-5.776 3.326-8.361 6.76-8.955 8.09-.594 1.329-2.95 1.33-3.542-1.283-.592-2.614-.846-9.924 3.542-16.157 4.387-6.233 11.185-10.126 15.269-11.82 4.083-1.695 12.436-4.48 15.27-4.48 2.834 0 3.984 1.602 3.984 3.04 0 .96.507 5.626 1.52 13.999z"/>
            <path fill="#FD9800" d="M16.033 185.518c-1.54 0-2.677.671-2.677 1.641v3.158c0 1.232 1.72 1.696 4.38 2.474 2.66.779 29.294 5.406 51.878 2.059 22.583-3.348 38.534-11.425 41.279-15.88 2.745-4.453 1.555-11.555 0-13.199-1.555-1.643-5.331-2.212-6.744 0-1.412 2.213-5.877 8.23-12.617 12.43-6.74 4.2-30.22 8.958-44.516 9.593-14.298.635-29.445-2.276-30.983-2.276zM179.243 121.202c-2.392 0-4.637 1.071-4.637 3.56 0 2.488.881 9.53 0 13.064-.88 3.533.37 4.865 3.022 4.865 2.654 0 18.62 1.093 25.658 3.286 7.039 2.192 12.363 5.98 14.225 8.162 1.861 2.182 5.228 1.316 5.986 0 .759-1.316 3.494-5.94 0-12.662-3.493-6.723-13.562-12.813-22.154-15.669-8.592-2.855-19.707-4.606-22.1-4.606zM219.668 166.869c-1.38-1.774-3.011-2.915-4.946-2.915-1.935 0-5.895 3.595-5.895 7.453 0 3.857 3.743 7.131 7.912 9.495 4.17 2.365 20.524 13.753 48.36 16.074 27.837 2.32 37.263 0 39.444 0 2.181 0 3.469-2.572 3.469-3.967 0-1.396-.789-1.841-2.754-1.841-1.965 0-17.337 2.386-35.392-1.705-18.055-4.09-34.08-10.837-39.459-14.446-5.378-3.61-9.36-6.374-10.739-8.148z" opacity=".2"/>
        </g>
        <path fill="#52A4C5" fill-opacity=".2" d="M141.662 171.236c-1.113 1.973-.154 5.889 1.514 9.362 1.669 3.473 10.878 15.624 14.743 21.394 2.576 3.846 14.527 27.411 35.852 70.696-1.935 4.948-2.903 8.13-2.903 9.545 0 1.416 1.234 2.688 3.702 3.815l3.589-3.815c-.478-3.88-.187-7.421.874-10.626a179.434 179.434 0 0 0 2.965-9.94c-2.185-6.22-3.786-10.974-4.806-14.265-1.019-3.29-7.884-20.548-20.596-51.772 2.99-4.655 5.154-8.2 6.493-10.634 2.008-3.651 6.382-17.947 6.382-20.33 0-2.383-1.915-3.077-4.149-1.539-2.233 1.539-13.69 7.274-25.334 8.109s-17.214-1.974-18.326 0z"/>
        <path fill="#52A4C5" d="M149.003 194.52c-3.007 3.566-4.95 6.476-5.827 8.73-1.01 2.593-2.052 6.059-3.126 10.397-14.551-12.52-22.403-19.183-23.556-19.992-1.73-1.213-3.482-3.995-4.863-3.995-1.38 0-5.156 2.14-4.381 5.97.774 3.83 2.34 7.07 5.792 10.562 3.452 3.492 21.012 22.865 23.03 22.865 2.018 0 13.645-4.872 17.239-8.262 1.978-1.866 4.939-3.93 7.597-6.852.894-.983 1.53-2.01.894-3.51-.635-1.501-9.021-14.641-10.044-15.912-1.022-1.271-2.371-.455-2.755 0z" opacity=".4"/>
    </g>
</svg>
