<svg xmlns="http://www.w3.org/2000/svg" width="312" height="300" viewBox="0 0 312 300">
    <g fill="none" fill-rule="evenodd">
        <circle cx="156" cy="150" r="142" fill="#9DA7A9" opacity=".3"/>
        <g transform="translate(140 5)">
            <rect width="60" height="41" fill="#FFF" rx="1"/>
            <rect width="60" height="41" fill="#FD9800" opacity=".3" rx="1"/>
        </g>
        <g transform="rotate(11 -163.406 904.488)">
            <rect width="68" height="31" fill="#FFF" rx="1"/>
            <rect width="68" height="31" fill="#FD9800" opacity=".3" rx="1"/>
        </g>
        <g transform="translate(154 87)">
            <rect width="56" height="61" fill="#FFF" rx="1"/>
            <rect width="56" height="61" fill="#FD9800" opacity=".3" rx="1"/>
        </g>
        <path stroke="#FD9800" stroke-dasharray="2,4" stroke-linecap="round" stroke-linejoin="round" d="M142 2h53v41h-46.335M167.478 44.883l65.769 12.785-5.725 29.449-65.769-12.785 5.725-29.449z"/>
        <path fill="#FFF" d="M75.912 272.953l4.51-4.92v-1.516l38.938-32.853 19.562-28.053 35.266 73.816-1.175 1.188 4.099 5.502 4.367-2.734v4.083c-.105 4.084.292 6.962 1.19 8.633.899 1.671 18.702-6.425 53.41-24.289-7.381-3.161-13.086-4.42-17.113-3.778-4.028.643-9.064 2.564-15.109 5.763-2.095-1.997-3.683-2.66-4.765-1.985-1.082.675-2.482 1.784-4.2 3.328l-3.949-5.106-3.643 1.778-31.3-88.48 1.486-1.01-4.537-37.077c11.94.087 21.673-1.259 29.2-4.038 7.525-2.78 14.762-7.7 21.708-14.762 3.313-4.185 4.97-7.31 4.97-9.376 0-3.1.066-6.881-1.033-7.911a199.445 199.445 0 0 1-2.622-2.513c-.877 7.732-7.575 13.82-20.096 18.267-12.521 4.447-24 5.804-34.437 4.074.39-18.052-.094-29.055-1.456-33.008-1.361-3.954-5.045-5.057-11.05-3.311l-2.962-14.534c9.862-.272 15.103-4.23 15.724-11.87.62-7.642-1.465-20.47-6.256-38.483 4.247-3.912 6.034-7.5 5.361-10.764-1.009-4.897-7.231-12.962-14.829-12.962-2.927 0-8.794 2.162-11.71 6.14 0 0-9.061-.29-13.591 1.8-3.02 1.392-7.517 4.954-13.49 10.687-3.57 6.172-4.22 12.605-1.949 19.299 2.272 6.693 3.63 10.529 4.074 11.506-.895 3.445-.652 6.272.727 8.48 1.38 2.21 3.16 3.987 5.342 5.331 4.235 10.276 6.862 16.709 7.881 19.3 1.019 2.59 2.414 6.878 4.187 12.864-2.936.205-5.193 1.052-6.772 2.541-2.368 2.234-5.458 11.062-3.09 16.24 2.369 5.18 7.472 21.727 8.95 32.784.984 7.37 1.289 16.978.912 28.821l-9.862 44.775-35.67 35.312-3.44-2.758-5.383 6.004 13.625 9.775z"/>
        <path fill="#52A4C5" d="M73.327 273.746c-1.25.882-1.7 1.265-3.948 0-2.248-1.266-8.147-5.976-9.627-6.974-1.48-.997-.892-2.72 0-3.387.892-.667 1.972-2.229 2.855-2.91.884-.681 2.705-.798 3.481 0 .776.798 2.06.684 4.328-1.695 2.268-2.38 28.125-28.973 29.826-30.182 1.701-1.21 3.035-4.78 4.009-8.673.974-3.892 6.956-30.51 7.809-32.06.853-1.548 1.603-5.393 4.53-4.5 2.926.892 16.714 4.5 20.216 4.5 3.502 0 7.018.05 8.05 3.153 1.033 3.102-12.542 19.357-13.958 22.406-1.416 3.048-14.357 21.47-16.598 23.466-2.24 1.996-31.888 26.485-33.994 27.808-2.107 1.322-4.109 3.067-4.109 4.291 0 1.224-1.619 3.874-2.87 4.757z" opacity=".2"/>
        <path fill="#52A4C5" d="M149.968 189.692c4.714-2.86 5 1.037 6.032 4.14.688 2.067 10.045 27.862 28.069 77.381.526 1.915 1.542 2.872 3.046 2.872 2.256 0 2.2-.718 3.45.66 1.252 1.38 1.963 3.6 0 4.691-1.961 1.09-11.958 6.935-13.31 8.018-1.35 1.083-2.874 1.1-3.533 0-.659-1.099-2.25-3.935-.634-5.34 1.618-1.404.658-2.948-1.278-5.158-1.936-2.21-29.852-61.759-31.428-63.836-1.576-2.077-3.557-4.706-1.576-7.062 1.98-2.357 6.448-13.505 11.162-16.366z" opacity=".4"/>
        <path stroke="#281F57" stroke-linecap="round" stroke-linejoin="round" d="M119.09 99.734c-7.448-.831-11.763 2.797-12.948 10.884-1.778 12.13 13.386 28.084 34.448 32.735 21.062 4.65 50.052-.64 61.789-14.668 7.824-9.352 8.714-16.866 2.67-22.54-.779 7.576-5.245 13.028-13.4 16.355-12.231 4.99-27.588 9.595-43.115 6.185-10.351-2.273-17.298-8.296-20.84-18.067M115 130c7.405-1.91 13.739-6.244 19-13"/>
        <path stroke="#281F57" stroke-linecap="round" stroke-linejoin="round" d="M107.526 119.545c7.8 19.036 10.784 39.19 8.95 60.463 21.328 5.828 35.17 6.553 41.524 2.174l-4.508-36.784M117.246 180.474L106.51 224.71 71.24 259.43M80.051 266.463l39.416-32.752L146 195M67.726 257L81 267.497c-2.951 3.669-4.795 5.503-5.532 5.503-.737 0-5.226-3.245-13.468-9.735L67.726 257zM139 206l35 73M156 183.364L187 271M173 280.258L190.945 270l4.055 5.129L176.683 286zM63.983 271c-3.487-.035-5.983.94-7.487 2.924-1.504 1.983-1.874 3.924-1.11 5.821L69.167 299H90c-.709-4.614-4.532-6.921-11.468-6.921-2.159-5.84-4.17-9.098-6.032-9.77 1.362-1.284 2.043-2.71 2.043-4.278 0-1.57-2.546-2.514-7.638-2.834.176 3.032-1.03 4.548-3.617 4.548-2.587 0-3.663-1.772-3.229-5.316M83 292.337c-4.27-.772-7.937-.218-11 1.663"/>
        <path stroke="#281F57" stroke-linecap="round" stroke-linejoin="round" d="M181.656 284.924c-.875 2.877-.875 5.761 0 8.651.875 2.89 2.552 4.699 5.03 5.425L232 269.873c-4.614-1.873-9.365-2.341-14.252-1.405-7.33 1.405-10.927 4.611-13.026 5.719-3.718-2.185-4.472-4.312-8.887 0-2.943 2.874-2.386 5.058 1.673 6.55 0 4.708-3.607 7.063-10.821 7.063"/>
        <path stroke="#FD9800" stroke-dasharray="2,4" stroke-linecap="round" stroke-linejoin="round" d="M151.873 125c-1.164-26.667-1.164-40 0-40H205v17.374M206 130v16l-25-.892"/>
        <g transform="rotate(-21 96.489 -196.496)">
            <path stroke="#281F57" stroke-linecap="round" stroke-linejoin="round" d="M9.023 36.72C7.887 18.656 11.695 8.422 26.867 4.24c11.094-3.058 19.195-1.294 24.301 5.29M9.496 87.244c.722-15.248.746-27.006.073-35.275"/>
            <path stroke="#281F57" stroke-linecap="round" stroke-linejoin="round" d="M47.555 5.962c4.561-3.057 9.46-3.342 14.697-.855 7.854 3.73 11.148 20.546 1.658 24.119-9.49 3.572-21.86-.155-29.493-8.571 0 0 3.442 15.142-12.118 21.196-1.421-8.06-14.889-8.873-15.89 1.387-1 10.26 9.45 12.355 13.893 8.342"/>
            <path stroke="#281F57" stroke-linecap="round" stroke-linejoin="round" d="M61.071 30.238c-3.105 18.007-4.865 28.246-5.28 30.718-.623 3.708-3.361 12.457-10.05 13.637-4.459.786-9.612-.015-15.46-2.403M40.925 65.926c-6.348-1.117-9.811-4.727-10.388-10.83"/>
            <path stroke="#281F57" stroke-linecap="round" stroke-linejoin="round" d="M49.043 45.524l1.502 8.516c-1.258 1.176-2.982 1.48-5.173.912M34.193 73.573l-2.427 14.79M9.535 87.262c7.454 2.968 16.018 3.133 25.691.495"/>
            <ellipse cx="41.853" cy="44.144" fill="#281F57" rx="1.576" ry="1.559" transform="rotate(4 41.853 44.144)"/>
            <ellipse cx="51.465" cy="47.215" fill="#281F57" rx="1.047" ry="1.039" transform="rotate(4 51.465 47.215)"/>
        </g>
        <path fill="#281F57" d="M153.059 152.321c0-1.861-2.373-4.717-3.666-4.717-1.292 0-13.827-2.467-19.11-4.59-5.283-2.122-13.366-7.808-15.13-8.965-1.765-1.157-.088-3.222 1.684-3.222 1.773 0 11.568-6.683 12.507-7.935.939-1.252 2.712-1.723 4.387 0 1.675 1.723 6.964 5.901 10.57 6.918 3.605 1.017 5.092-.962 5.092-3.599 0-2.636.711-23.48-.799-26.672s-2.886-5.272-5.925-5.272c-3.04 0-3.41-.58-7.898 2.346-4.488 2.926-8.94 4.887-12.822 4.887-3.88 0-12.074-.555-14.416 4.237-2.342 4.792-4.528 8.641.945 21.26 5.472 12.617 7.425 33.203 7.425 41.154v11.189c0 1.653-.625 2.786 2.71 3.535 3.336.748 15.771 4.239 26.412 4.239 10.642 0 11.566-3.972 11.566-5.873 0-1.901-3.532-27.058-3.532-28.92z" opacity=".2"/>
    </g>
</svg>
