<svg width="24" height="24" viewBox="0 0 24 24" fill="none" xmlns="http://www.w3.org/2000/svg">
<mask id="mask0" mask-type="alpha" maskUnits="userSpaceOnUse" x="1" y="12" width="11" height="11">
<path d="M10.8796 18.2072L10.0217 17.7279L10.8796 17.2486C11.0993 17.1214 11.2596 16.9121 11.3252 16.6668C11.3908 16.4215 11.3563 16.1602 11.2295 15.9402L10.2709 14.2819C10.2111 14.1699 10.1297 14.0708 10.0313 13.9906C9.93295 13.9103 9.8196 13.8503 9.69787 13.8142C9.57613 13.7781 9.44844 13.7665 9.32219 13.7802C9.19595 13.7938 9.07368 13.8324 8.96247 13.8937L8.10456 14.4065V13.4144C8.10456 13.1602 8.00357 12.9164 7.82381 12.7366C7.64404 12.5568 7.40023 12.4559 7.146 12.4559H5.22889C4.97466 12.4559 4.73085 12.5568 4.55108 12.7366C4.37132 12.9164 4.27033 13.1602 4.27033 13.4144V14.4065L3.41242 13.8937C3.19246 13.7668 2.93114 13.7324 2.68583 13.798C2.44052 13.8636 2.23126 14.0238 2.10399 14.2436L1.14543 15.9019C1.07648 16.0123 1.03075 16.1357 1.01104 16.2644C0.991336 16.3931 0.998056 16.5245 1.0308 16.6505C1.06354 16.7765 1.12161 16.8945 1.20147 16.9974C1.28133 17.1002 1.38131 17.1857 1.4953 17.2486L2.35321 17.7279L1.4953 18.2072C1.27557 18.3345 1.11531 18.5437 1.04972 18.7891C0.984122 19.0344 1.01854 19.2957 1.14543 19.5156L2.10399 21.1787C2.16417 21.2904 2.24592 21.3889 2.34447 21.4687C2.44303 21.5485 2.55644 21.608 2.67814 21.6437C2.79984 21.6793 2.9274 21.6905 3.05345 21.6765C3.17949 21.6625 3.3015 21.6236 3.41242 21.5622L4.27033 21.0829V22.0414C4.27033 22.2957 4.37132 22.5395 4.55108 22.7192C4.73085 22.899 4.97466 23 5.22889 23H7.146C7.40023 23 7.64404 22.899 7.82381 22.7192C8.00357 22.5395 8.10456 22.2957 8.10456 22.0414V21.0493L8.96247 21.5286C9.18243 21.6555 9.44375 21.6899 9.68906 21.6243C9.93437 21.5587 10.1436 21.3985 10.2709 21.1787L11.2295 19.5204C11.293 19.4113 11.3344 19.2907 11.3512 19.1655C11.3681 19.0404 11.36 18.9131 11.3275 18.7911C11.295 18.6691 11.2387 18.5547 11.1618 18.4545C11.0849 18.3543 10.989 18.2702 10.8796 18.2072V18.2072ZM9.44175 20.6995L7.84575 19.7792L7.60132 19.9374L7.40481 20.0524L7.146 20.1866V22.0414H5.22889V20.1962L4.97008 20.062L4.74961 19.947L4.50517 19.7888L2.93314 20.7138L1.97458 19.0555L3.57058 18.1305V17.3253L1.97458 16.4003L2.93314 14.742L4.52914 15.6622L4.74961 15.5041L4.94611 15.389L5.22889 15.2548V13.4144H7.146V15.2548L7.40481 15.389L7.60132 15.5041L7.84575 15.6622L9.44175 14.742L10.4003 16.4003L8.80431 17.3205V18.1257L10.4003 19.0507L9.44175 20.6995ZM6.18745 15.8108C5.67899 15.8108 5.19137 16.0128 4.83184 16.3723C4.47231 16.7319 4.27033 17.2195 4.27033 17.7279C4.27033 18.2364 4.47231 18.724 4.83184 19.0835C5.19137 19.4431 5.67899 19.645 6.18745 19.645C6.6959 19.645 7.18352 19.4431 7.54305 19.0835C7.90258 18.724 8.10456 18.2364 8.10456 17.7279C8.10456 17.2195 7.90258 16.7319 7.54305 16.3723C7.18352 16.0128 6.6959 15.8108 6.18745 15.8108V15.8108ZM6.18745 18.6865C5.93322 18.6865 5.68941 18.5855 5.50964 18.4057C5.32988 18.226 5.22889 17.9822 5.22889 17.7279C5.22889 17.4737 5.32988 17.2299 5.50964 17.0501C5.68941 16.8704 5.93322 16.7694 6.18745 16.7694C6.44167 16.7694 6.68548 16.8704 6.86525 17.0501C7.04501 17.2299 7.146 17.4737 7.146 17.7279C7.146 17.9822 7.04501 18.226 6.86525 18.4057C6.68548 18.5855 6.44167 18.6865 6.18745 18.6865Z" fill="white"/>
</mask>
<g mask="url(#mask0)">
<path d="M10.8796 18.2072L10.0217 17.7279L10.8796 17.2486C11.0993 17.1214 11.2596 16.9121 11.3252 16.6668C11.3908 16.4215 11.3563 16.1602 11.2295 15.9402L10.2709 14.2819C10.2111 14.1699 10.1297 14.0708 10.0313 13.9906C9.93295 13.9103 9.8196 13.8503 9.69787 13.8142C9.57613 13.7781 9.44844 13.7665 9.32219 13.7802C9.19595 13.7938 9.07368 13.8324 8.96247 13.8937L8.10456 14.4065V13.4144C8.10456 13.1602 8.00357 12.9164 7.82381 12.7366C7.64404 12.5568 7.40023 12.4559 7.146 12.4559H5.22889C4.97466 12.4559 4.73085 12.5568 4.55108 12.7366C4.37132 12.9164 4.27033 13.1602 4.27033 13.4144V14.4065L3.41242 13.8937C3.19246 13.7668 2.93114 13.7324 2.68583 13.798C2.44052 13.8636 2.23126 14.0238 2.10399 14.2436L1.14543 15.9019C1.07648 16.0123 1.03075 16.1357 1.01104 16.2644C0.991336 16.3931 0.998056 16.5245 1.0308 16.6505C1.06354 16.7765 1.12161 16.8945 1.20147 16.9974C1.28133 17.1002 1.38131 17.1857 1.4953 17.2486L2.35321 17.7279L1.4953 18.2072C1.27557 18.3345 1.11531 18.5437 1.04972 18.7891C0.984122 19.0344 1.01854 19.2957 1.14543 19.5156L2.10399 21.1787C2.16417 21.2904 2.24592 21.3889 2.34447 21.4687C2.44303 21.5485 2.55644 21.608 2.67814 21.6437C2.79984 21.6793 2.9274 21.6905 3.05345 21.6765C3.17949 21.6625 3.3015 21.6236 3.41242 21.5622L4.27033 21.0829V22.0414C4.27033 22.2957 4.37132 22.5395 4.55108 22.7192C4.73085 22.899 4.97466 23 5.22889 23H7.146C7.40023 23 7.64404 22.899 7.82381 22.7192C8.00357 22.5395 8.10456 22.2957 8.10456 22.0414V21.0493L8.96247 21.5286C9.18243 21.6555 9.44375 21.6899 9.68906 21.6243C9.93437 21.5587 10.1436 21.3985 10.2709 21.1787L11.2295 19.5204C11.293 19.4113 11.3344 19.2907 11.3512 19.1655C11.3681 19.0404 11.36 18.9131 11.3275 18.7911C11.295 18.6691 11.2387 18.5547 11.1618 18.4545C11.0849 18.3543 10.989 18.2702 10.8796 18.2072V18.2072ZM9.44175 20.6995L7.84575 19.7792L7.60132 19.9374L7.40481 20.0524L7.146 20.1866V22.0414H5.22889V20.1962L4.97008 20.062L4.74961 19.947L4.50517 19.7888L2.93314 20.7138L1.97458 19.0555L3.57058 18.1305V17.3253L1.97458 16.4003L2.93314 14.742L4.52914 15.6622L4.74961 15.5041L4.94611 15.389L5.22889 15.2548V13.4144H7.146V15.2548L7.40481 15.389L7.60132 15.5041L7.84575 15.6622L9.44175 14.742L10.4003 16.4003L8.80431 17.3205V18.1257L10.4003 19.0507L9.44175 20.6995ZM6.18745 15.8108C5.67899 15.8108 5.19137 16.0128 4.83184 16.3723C4.47231 16.7319 4.27033 17.2195 4.27033 17.7279C4.27033 18.2364 4.47231 18.724 4.83184 19.0835C5.19137 19.4431 5.67899 19.645 6.18745 19.645C6.6959 19.645 7.18352 19.4431 7.54305 19.0835C7.90258 18.724 8.10456 18.2364 8.10456 17.7279C8.10456 17.2195 7.90258 16.7319 7.54305 16.3723C7.18352 16.0128 6.6959 15.8108 6.18745 15.8108V15.8108ZM6.18745 18.6865C5.93322 18.6865 5.68941 18.5855 5.50964 18.4057C5.32988 18.226 5.22889 17.9822 5.22889 17.7279C5.22889 17.4737 5.32988 17.2299 5.50964 17.0501C5.68941 16.8704 5.93322 16.7694 6.18745 16.7694C6.44167 16.7694 6.68548 16.8704 6.86525 17.0501C7.04501 17.2299 7.146 17.4737 7.146 17.7279C7.146 17.9822 7.04501 18.226 6.86525 18.4057C6.68548 18.5855 6.44167 18.6865 6.18745 18.6865Z" fill="black"/>
<path fill-rule="evenodd" clip-rule="evenodd" d="M0.436035 11.9766H11.9387V23.4793H0.436035V11.9766Z" fill="#4A5C60"/>
</g>
<mask id="mask1" mask-type="alpha" maskUnits="userSpaceOnUse" x="8" y="1" width="15" height="15">
<path d="M22.1945 9.09435L20.987 8.41982L22.1945 7.74529C22.5037 7.56617 22.7292 7.27166 22.8216 6.92641C22.9139 6.58116 22.8654 6.21339 22.6869 5.90383L21.3378 3.56996C21.2537 3.41229 21.1391 3.27291 21.0006 3.15991C20.8622 3.04691 20.7026 2.96254 20.5313 2.91171C20.36 2.86088 20.1803 2.84459 20.0026 2.8638C19.8249 2.883 19.6528 2.93732 19.4963 3.02359L18.2889 3.74533V2.34906C18.2889 1.99127 18.1468 1.64813 17.8938 1.39513C17.6408 1.14213 17.2977 1 16.9399 1H14.2418C13.884 1 13.5408 1.14213 13.2878 1.39513C13.0348 1.64813 12.8927 1.99127 12.8927 2.34906V3.74533L11.6853 3.02359C11.3757 2.84501 11.008 2.79657 10.6627 2.88889C10.3175 2.98121 10.023 3.20675 9.84383 3.51599L8.49477 5.84986C8.39773 6.00531 8.33338 6.17891 8.30564 6.36005C8.27791 6.54119 8.28736 6.72608 8.33344 6.90345C8.37952 7.08081 8.46125 7.24693 8.57364 7.39167C8.68604 7.53641 8.82675 7.65673 8.98718 7.74529L10.1946 8.41982L8.98718 9.09435C8.67793 9.27347 8.45239 9.56798 8.36007 9.91323C8.26775 10.2585 8.3162 10.6262 8.49477 10.9358L9.84383 13.2764C9.92854 13.4335 10.0436 13.5722 10.1823 13.6846C10.321 13.7969 10.4806 13.8806 10.6519 13.9308C10.8232 13.9809 11.0027 13.9967 11.1801 13.977C11.3575 13.9573 11.5292 13.9026 11.6853 13.8161L12.8927 13.1415V14.4906C12.8927 14.8484 13.0348 15.1915 13.2878 15.4445C13.5408 15.6975 13.884 15.8396 14.2418 15.8396H16.9399C17.2977 15.8396 17.6408 15.6975 17.8938 15.4445C18.1468 15.1915 18.2889 14.8484 18.2889 14.4906V13.0943L19.4963 13.7688C19.8059 13.9474 20.1737 13.9959 20.5189 13.9035C20.8642 13.8112 21.1587 13.5857 21.3378 13.2764L22.6869 10.9426C22.7763 10.789 22.8346 10.6192 22.8583 10.4431C22.8819 10.2669 22.8706 10.0879 22.8248 9.91611C22.779 9.74436 22.6998 9.58335 22.5916 9.44233C22.4835 9.3013 22.3485 9.18305 22.1945 9.09435V9.09435ZM20.1709 12.6019L17.9247 11.3068L17.5807 11.5294L17.3041 11.6913L16.9399 11.8802V14.4906H14.2418V11.8936L13.8775 11.7048L13.5672 11.5429L13.2232 11.3203L11.0108 12.6221L9.66171 10.2883L11.9079 8.98642V7.85321L9.66171 6.55137L11.0108 4.2175L13.2569 5.5126L13.5672 5.29L13.8438 5.12812L14.2418 4.93925V2.34906H16.9399V4.93925L17.3041 5.12812L17.5807 5.29L17.9247 5.5126L20.1709 4.2175L21.5199 6.55137L19.2737 7.84647V8.97968L21.5199 10.2815L20.1709 12.6019ZM15.5908 5.7217C14.8752 5.7217 14.189 6.00597 13.683 6.51196C13.177 7.01796 12.8927 7.70423 12.8927 8.41982C12.8927 9.1354 13.177 9.82168 13.683 10.3277C14.189 10.8337 14.8752 11.1179 15.5908 11.1179C16.3064 11.1179 16.9927 10.8337 17.4987 10.3277C18.0047 9.82168 18.2889 9.1354 18.2889 8.41982C18.2889 7.70423 18.0047 7.01796 17.4987 6.51196C16.9927 6.00597 16.3064 5.7217 15.5908 5.7217V5.7217ZM15.5908 9.76888C15.233 9.76888 14.8899 9.62674 14.6369 9.37375C14.3839 9.12075 14.2418 8.77761 14.2418 8.41982C14.2418 8.06203 14.3839 7.71889 14.6369 7.46589C14.8899 7.21289 15.233 7.07076 15.5908 7.07076C15.9486 7.07076 16.2917 7.21289 16.5447 7.46589C16.7977 7.71889 16.9399 8.06203 16.9399 8.41982C16.9399 8.77761 16.7977 9.12075 16.5447 9.37375C16.2917 9.62674 15.9486 9.76888 15.5908 9.76888Z" fill="white"/>
</mask>
<g mask="url(#mask1)">
<path d="M22.1945 9.09435L20.987 8.41982L22.1945 7.74529C22.5037 7.56617 22.7292 7.27166 22.8216 6.92641C22.9139 6.58116 22.8654 6.21339 22.6869 5.90383L21.3378 3.56996C21.2537 3.41229 21.1391 3.27291 21.0006 3.15991C20.8622 3.04691 20.7026 2.96254 20.5313 2.91171C20.36 2.86088 20.1803 2.84459 20.0026 2.8638C19.8249 2.883 19.6528 2.93732 19.4963 3.02359L18.2889 3.74533V2.34906C18.2889 1.99127 18.1468 1.64813 17.8938 1.39513C17.6408 1.14213 17.2977 1 16.9399 1H14.2418C13.884 1 13.5408 1.14213 13.2878 1.39513C13.0348 1.64813 12.8927 1.99127 12.8927 2.34906V3.74533L11.6853 3.02359C11.3757 2.84501 11.008 2.79657 10.6627 2.88889C10.3175 2.98121 10.023 3.20675 9.84383 3.51599L8.49477 5.84986C8.39773 6.00531 8.33338 6.17891 8.30564 6.36005C8.27791 6.54119 8.28736 6.72608 8.33344 6.90345C8.37952 7.08081 8.46125 7.24693 8.57364 7.39167C8.68604 7.53641 8.82675 7.65673 8.98718 7.74529L10.1946 8.41982L8.98718 9.09435C8.67793 9.27347 8.45239 9.56798 8.36007 9.91323C8.26775 10.2585 8.3162 10.6262 8.49477 10.9358L9.84383 13.2764C9.92854 13.4335 10.0436 13.5722 10.1823 13.6846C10.321 13.7969 10.4806 13.8806 10.6519 13.9308C10.8232 13.9809 11.0027 13.9967 11.1801 13.977C11.3575 13.9573 11.5292 13.9026 11.6853 13.8161L12.8927 13.1415V14.4906C12.8927 14.8484 13.0348 15.1915 13.2878 15.4445C13.5408 15.6975 13.884 15.8396 14.2418 15.8396H16.9399C17.2977 15.8396 17.6408 15.6975 17.8938 15.4445C18.1468 15.1915 18.2889 14.8484 18.2889 14.4906V13.0943L19.4963 13.7688C19.8059 13.9474 20.1737 13.9959 20.5189 13.9035C20.8642 13.8112 21.1587 13.5857 21.3378 13.2764L22.6869 10.9426C22.7763 10.789 22.8346 10.6192 22.8583 10.4431C22.8819 10.2669 22.8706 10.0879 22.8248 9.91611C22.779 9.74436 22.6998 9.58335 22.5916 9.44233C22.4835 9.3013 22.3485 9.18305 22.1945 9.09435V9.09435ZM20.1709 12.6019L17.9247 11.3068L17.5807 11.5294L17.3041 11.6913L16.9399 11.8802V14.4906H14.2418V11.8936L13.8775 11.7048L13.5672 11.5429L13.2232 11.3203L11.0108 12.6221L9.66171 10.2883L11.9079 8.98642V7.85321L9.66171 6.55137L11.0108 4.2175L13.2569 5.5126L13.5672 5.29L13.8438 5.12812L14.2418 4.93925V2.34906H16.9399V4.93925L17.3041 5.12812L17.5807 5.29L17.9247 5.5126L20.1709 4.2175L21.5199 6.55137L19.2737 7.84647V8.97968L21.5199 10.2815L20.1709 12.6019ZM15.5908 5.7217C14.8752 5.7217 14.189 6.00597 13.683 6.51196C13.177 7.01796 12.8927 7.70423 12.8927 8.41982C12.8927 9.1354 13.177 9.82168 13.683 10.3277C14.189 10.8337 14.8752 11.1179 15.5908 11.1179C16.3064 11.1179 16.9927 10.8337 17.4987 10.3277C18.0047 9.82168 18.2889 9.1354 18.2889 8.41982C18.2889 7.70423 18.0047 7.01796 17.4987 6.51196C16.9927 6.00597 16.3064 5.7217 15.5908 5.7217V5.7217ZM15.5908 9.76888C15.233 9.76888 14.8899 9.62674 14.6369 9.37375C14.3839 9.12075 14.2418 8.77761 14.2418 8.41982C14.2418 8.06203 14.3839 7.71889 14.6369 7.46589C14.8899 7.21289 15.233 7.07076 15.5908 7.07076C15.9486 7.07076 16.2917 7.21289 16.5447 7.46589C16.7977 7.71889 16.9399 8.06203 16.9399 8.41982C16.9399 8.77761 16.7977 9.12075 16.5447 9.37375C16.2917 9.62674 15.9486 9.76888 15.5908 9.76888Z" fill="black"/>
<path fill-rule="evenodd" clip-rule="evenodd" d="M7.49634 0.325455H23.685V16.5141H7.49634V0.325455Z" fill="#4A5C60"/>
</g>
</svg>
