<svg width="26" height="24" viewBox="0 0 26 24" fill="none" xmlns="http://www.w3.org/2000/svg">
<path d="M19.7543 18.4373L14.1335 18.4373C13.6342 18.4373 13.1528 18.2505 12.7842 17.9136L4.55104 10.3885L4.23435 10.0718C3.43113 9.2686 3.45733 7.95848 4.29202 7.18801L7.7558 3.9907C8.14024 3.63583 8.7628 3.796 8.92825 4.29235C8.98869 4.47366 8.97462 4.67157 8.88915 4.84251L8.79907 5.02268C8.65591 5.30899 8.63236 5.64044 8.73358 5.94411L8.85795 6.31721C8.9634 6.63357 9.19021 6.89508 9.48847 7.04421C9.76445 7.1822 10.0815 7.21389 10.3794 7.13326L10.4864 7.10428C11.1321 6.92946 11.8171 7.18912 12.1847 7.74807L15.4739 12.7496C15.659 13.0312 15.9123 13.2614 16.2102 13.4189L16.9685 13.8197C17.1516 13.9165 17.3485 13.9842 17.5523 14.0205L19.2858 14.3295C19.5938 14.3843 19.8846 14.5107 20.1349 14.6985L20.8275 15.2179C21.2778 15.5556 21.5429 16.0857 21.5429 16.6487C21.5429 17.6365 20.7421 18.4373 19.7543 18.4373Z" stroke="#4A5C60" stroke-width="2"/>
<rect x="2.34144" y="12.2845" width="1.78861" height="0.894307" rx="0.447153" stroke="#4A5C60" stroke-width="0.894307"/>
<path d="M3.57723 15.0203H6.26015C6.47792 15.0203 6.65446 15.1968 6.65446 15.4146C6.65446 15.6324 6.47792 15.8089 6.26015 15.8089H3.57723C3.35946 15.8089 3.18292 15.6324 3.18292 15.4146C3.18292 15.1968 3.35946 15.0203 3.57723 15.0203Z" stroke="#4A5C60"/>
<rect x="5.91871" y="17.6504" width="3.57723" height="0.894307" rx="0.447153" stroke="#4A5C60" stroke-width="0.894307"/>
</svg>
