<svg width="24" height="24" viewBox="0 0 24 24" fill="none" xmlns="http://www.w3.org/2000/svg">
<mask id="mask0" mask-type="alpha" maskUnits="userSpaceOnUse" x="2" y="2" width="20" height="20">
<path d="M10 20H12V5C12 4.73478 11.8946 4.48043 11.7071 4.29289C11.5196 4.10536 11.2652 4 11 4H5C4.73478 4 4.48043 4.10536 4.29289 4.29289C4.10536 4.48043 4 4.73478 4 5V20H6V19C6 18.7348 6.10536 18.4804 6.29289 18.2929C6.48043 18.1054 6.73478 18 7 18H9C9.26522 18 9.51957 18.1054 9.70711 18.2929C9.89464 18.4804 10 18.7348 10 19V20ZM12 22H2V4C2 3.46957 2.21071 2.96086 2.58579 2.58579C2.96086 2.21071 3.46957 2 4 2H12C12.5304 2 13.0391 2.21071 13.4142 2.58579C13.7893 2.96086 14 3.46957 14 4V8H20C20.5304 8 21.0391 8.21071 21.4142 8.58579C21.7893 8.96086 22 9.46957 22 10V22H12ZM14 20H20V11C20 10.7348 19.8946 10.4804 19.7071 10.2929C19.5196 10.1054 19.2652 10 19 10H15C14.7348 10 14.4804 10.1054 14.2929 10.2929C14.1054 10.4804 14 10.7348 14 11V20ZM17 12C17.2652 12 17.5196 12.1054 17.7071 12.2929C17.8946 12.4804 18 12.7348 18 13C18 13.2652 17.8946 13.5196 17.7071 13.7071C17.5196 13.8946 17.2652 14 17 14C16.7348 14 16.4804 13.8946 16.2929 13.7071C16.1054 13.5196 16 13.2652 16 13C16 12.7348 16.1054 12.4804 16.2929 12.2929C16.4804 12.1054 16.7348 12 17 12ZM17 16C17.2652 16 17.5196 16.1054 17.7071 16.2929C17.8946 16.4804 18 16.7348 18 17C18 17.2652 17.8946 17.5196 17.7071 17.7071C17.5196 17.8946 17.2652 18 17 18C16.7348 18 16.4804 17.8946 16.2929 17.7071C16.1054 17.5196 16 17.2652 16 17C16 16.7348 16.1054 16.4804 16.2929 16.2929C16.4804 16.1054 16.7348 16 17 16ZM7 6H9C9.26522 6 9.51957 6.10536 9.70711 6.29289C9.89464 6.48043 10 6.73478 10 7C10 7.26522 9.89464 7.51957 9.70711 7.70711C9.51957 7.89464 9.26522 8 9 8H7C6.73478 8 6.48043 7.89464 6.29289 7.70711C6.10536 7.51957 6 7.26522 6 7C6 6.73478 6.10536 6.48043 6.29289 6.29289C6.48043 6.10536 6.73478 6 7 6ZM7 10H9C9.26522 10 9.51957 10.1054 9.70711 10.2929C9.89464 10.4804 10 10.7348 10 11C10 11.2652 9.89464 11.5196 9.70711 11.7071C9.51957 11.8946 9.26522 12 9 12H7C6.73478 12 6.48043 11.8946 6.29289 11.7071C6.10536 11.5196 6 11.2652 6 11C6 10.7348 6.10536 10.4804 6.29289 10.2929C6.48043 10.1054 6.73478 10 7 10ZM7 14H9C9.26522 14 9.51957 14.1054 9.70711 14.2929C9.89464 14.4804 10 14.7348 10 15C10 15.2652 9.89464 15.5196 9.70711 15.7071C9.51957 15.8946 9.26522 16 9 16H7C6.73478 16 6.48043 15.8946 6.29289 15.7071C6.10536 15.5196 6 15.2652 6 15C6 14.7348 6.10536 14.4804 6.29289 14.2929C6.48043 14.1054 6.73478 14 7 14Z" fill="white"/>
</mask>
<g mask="url(#mask0)">
<path d="M10 20H12V5C12 4.73478 11.8946 4.48043 11.7071 4.29289C11.5196 4.10536 11.2652 4 11 4H5C4.73478 4 4.48043 4.10536 4.29289 4.29289C4.10536 4.48043 4 4.73478 4 5V20H6V19C6 18.7348 6.10536 18.4804 6.29289 18.2929C6.48043 18.1054 6.73478 18 7 18H9C9.26522 18 9.51957 18.1054 9.70711 18.2929C9.89464 18.4804 10 18.7348 10 19V20ZM12 22H2V4C2 3.46957 2.21071 2.96086 2.58579 2.58579C2.96086 2.21071 3.46957 2 4 2H12C12.5304 2 13.0391 2.21071 13.4142 2.58579C13.7893 2.96086 14 3.46957 14 4V8H20C20.5304 8 21.0391 8.21071 21.4142 8.58579C21.7893 8.96086 22 9.46957 22 10V22H12ZM14 20H20V11C20 10.7348 19.8946 10.4804 19.7071 10.2929C19.5196 10.1054 19.2652 10 19 10H15C14.7348 10 14.4804 10.1054 14.2929 10.2929C14.1054 10.4804 14 10.7348 14 11V20ZM17 12C17.2652 12 17.5196 12.1054 17.7071 12.2929C17.8946 12.4804 18 12.7348 18 13C18 13.2652 17.8946 13.5196 17.7071 13.7071C17.5196 13.8946 17.2652 14 17 14C16.7348 14 16.4804 13.8946 16.2929 13.7071C16.1054 13.5196 16 13.2652 16 13C16 12.7348 16.1054 12.4804 16.2929 12.2929C16.4804 12.1054 16.7348 12 17 12ZM17 16C17.2652 16 17.5196 16.1054 17.7071 16.2929C17.8946 16.4804 18 16.7348 18 17C18 17.2652 17.8946 17.5196 17.7071 17.7071C17.5196 17.8946 17.2652 18 17 18C16.7348 18 16.4804 17.8946 16.2929 17.7071C16.1054 17.5196 16 17.2652 16 17C16 16.7348 16.1054 16.4804 16.2929 16.2929C16.4804 16.1054 16.7348 16 17 16ZM7 6H9C9.26522 6 9.51957 6.10536 9.70711 6.29289C9.89464 6.48043 10 6.73478 10 7C10 7.26522 9.89464 7.51957 9.70711 7.70711C9.51957 7.89464 9.26522 8 9 8H7C6.73478 8 6.48043 7.89464 6.29289 7.70711C6.10536 7.51957 6 7.26522 6 7C6 6.73478 6.10536 6.48043 6.29289 6.29289C6.48043 6.10536 6.73478 6 7 6ZM7 10H9C9.26522 10 9.51957 10.1054 9.70711 10.2929C9.89464 10.4804 10 10.7348 10 11C10 11.2652 9.89464 11.5196 9.70711 11.7071C9.51957 11.8946 9.26522 12 9 12H7C6.73478 12 6.48043 11.8946 6.29289 11.7071C6.10536 11.5196 6 11.2652 6 11C6 10.7348 6.10536 10.4804 6.29289 10.2929C6.48043 10.1054 6.73478 10 7 10ZM7 14H9C9.26522 14 9.51957 14.1054 9.70711 14.2929C9.89464 14.4804 10 14.7348 10 15C10 15.2652 9.89464 15.5196 9.70711 15.7071C9.51957 15.8946 9.26522 16 9 16H7C6.73478 16 6.48043 15.8946 6.29289 15.7071C6.10536 15.5196 6 15.2652 6 15C6 14.7348 6.10536 14.4804 6.29289 14.2929C6.48043 14.1054 6.73478 14 7 14Z" fill="black"/>
<path fill-rule="evenodd" clip-rule="evenodd" d="M0 0H24V24H0V0Z" fill="#0c9abe"/>
</g>
</svg>
