<svg width="24" height="24" viewBox="0 0 24 24" fill="none" xmlns="http://www.w3.org/2000/svg">
<mask id="mask0" mask-type="alpha" maskUnits="userSpaceOnUse" x="3" y="3" width="18" height="19">
<path d="M15.38 11.675C16.1234 10.9966 16.6441 10.1091 16.8736 9.12925C17.1031 8.14937 17.0308 7.12297 16.666 6.185C16.3003 5.24638 15.6597 4.44009 14.828 3.87177C13.9963 3.30345 13.0123 2.99959 12.005 3C10.9978 2.99979 10.0141 3.30374 9.18259 3.87205C8.35109 4.44036 7.7106 5.24654 7.345 6.185C6.98013 7.12288 6.9076 8.14921 7.13695 9.12908C7.3663 10.1089 7.88679 10.9965 8.63 11.675C6.96859 12.3439 5.54496 13.494 4.54181 14.9777C3.53866 16.4614 3.00175 18.211 3 20.002C3 20.2672 3.10536 20.5216 3.29289 20.7091C3.48043 20.8966 3.73478 21.002 4 21.002C4.26522 21.002 4.51957 20.8966 4.70711 20.7091C4.89464 20.5216 5 20.2672 5 20.002C5 16.142 8.134 13.012 12 13.012C15.866 13.012 19 16.142 19 20.002C19 20.2672 19.1054 20.5216 19.2929 20.7091C19.4804 20.8966 19.7348 21.002 20 21.002C20.2652 21.002 20.5196 20.8966 20.7071 20.7091C20.8946 20.5216 21 20.2672 21 20.002C20.9991 18.2122 20.4636 16.4634 19.4623 14.9798C18.4611 13.4962 17.0395 12.3454 15.38 11.675ZM9 8.021C9.0008 7.22605 9.31728 6.46397 9.87986 5.90233C10.4424 5.34068 11.2051 5.02547 12 5.026C13.657 5.026 15 6.366 15 8.021C14.9992 8.81595 14.6827 9.57803 14.1201 10.1397C13.5576 10.7013 12.7949 11.0165 12 11.016C10.343 11.016 9 9.676 9 8.021Z" fill="white"/>
</mask>
<g mask="url(#mask0)">
<path d="M15.38 11.675C16.1234 10.9966 16.6441 10.1091 16.8736 9.12925C17.1031 8.14937 17.0308 7.12297 16.666 6.185C16.3003 5.24638 15.6597 4.44009 14.828 3.87177C13.9963 3.30345 13.0123 2.99959 12.005 3C10.9978 2.99979 10.0141 3.30374 9.18259 3.87205C8.35109 4.44036 7.7106 5.24654 7.345 6.185C6.98013 7.12288 6.9076 8.14921 7.13695 9.12908C7.3663 10.1089 7.88679 10.9965 8.63 11.675C6.96859 12.3439 5.54496 13.494 4.54181 14.9777C3.53866 16.4614 3.00175 18.211 3 20.002C3 20.2672 3.10536 20.5216 3.29289 20.7091C3.48043 20.8966 3.73478 21.002 4 21.002C4.26522 21.002 4.51957 20.8966 4.70711 20.7091C4.89464 20.5216 5 20.2672 5 20.002C5 16.142 8.134 13.012 12 13.012C15.866 13.012 19 16.142 19 20.002C19 20.2672 19.1054 20.5216 19.2929 20.7091C19.4804 20.8966 19.7348 21.002 20 21.002C20.2652 21.002 20.5196 20.8966 20.7071 20.7091C20.8946 20.5216 21 20.2672 21 20.002C20.9991 18.2122 20.4636 16.4634 19.4623 14.9798C18.4611 13.4962 17.0395 12.3454 15.38 11.675ZM9 8.021C9.0008 7.22605 9.31728 6.46397 9.87986 5.90233C10.4424 5.34068 11.2051 5.02547 12 5.026C13.657 5.026 15 6.366 15 8.021C14.9992 8.81595 14.6827 9.57803 14.1201 10.1397C13.5576 10.7013 12.7949 11.0165 12 11.016C10.343 11.016 9 9.676 9 8.021Z" fill="black"/>
<path fill-rule="evenodd" clip-rule="evenodd" d="M0 0H24V24H0V0Z" fill="#0c9abe"/>
</g>
</svg>
