<svg width="24" height="24" viewBox="0 0 24 24" fill="none" xmlns="http://www.w3.org/2000/svg">
<mask id="mask0" mask-type="alpha" maskUnits="userSpaceOnUse" x="4" y="2" width="24" height="24">
<path d="M17 9C18.654 9 20 10.346 20 12V19C20 20.654 18.654 22 17 22H7C5.346 22 4 20.654 4 19V12C4 10.346 5.346 9 7 9V6C7 3.794 8.794 2 11 2H13C15.206 2 17 3.794 17 6V9ZM18 19V12C18 11.449 17.552 11 17 11H7C6.448 11 6 11.449 6 12V19C6 19.2652 6.10536 19.5196 6.29289 19.7071C6.48043 19.8946 6.73478 20 7 20H17C17.2652 20 17.5196 19.8946 17.7071 19.7071C17.8946 19.5196 18 19.2652 18 19ZM9 6V9H15V6C15 4.897 14.103 4 13 4H11C9.897 4 9 4.897 9 6ZM12 14C12.2652 14 12.5196 14.1054 12.7071 14.2929C12.8946 14.4804 13 14.7348 13 15V16C13 16.2652 12.8946 16.5196 12.7071 16.7071C12.5196 16.8946 12.2652 17 12 17C11.7348 17 11.4804 16.8946 11.2929 16.7071C11.1054 16.5196 11 16.2652 11 16V15C11 14.7348 11.1054 14.4804 11.2929 14.2929C11.4804 14.1054 11.7348 14 12 14Z" fill="white"/>
</mask>
<g mask="url(#mask0)">
<path d="M17 9C18.654 9 20 10.346 20 12V19C20 20.654 18.654 22 17 22H7C5.346 22 4 20.654 4 19V12C4 10.346 5.346 9 7 9V6C7 3.794 8.794 2 11 2H13C15.206 2 17 3.794 17 6V9ZM18 19V12C18 11.449 17.552 11 17 11H7C6.448 11 6 11.449 6 12V19C6 19.2652 6.10536 19.5196 6.29289 19.7071C6.48043 19.8946 6.73478 20 7 20H17C17.2652 20 17.5196 19.8946 17.7071 19.7071C17.8946 19.5196 18 19.2652 18 19ZM9 6V9H15V6C15 4.897 14.103 4 13 4H11C9.897 4 9 4.897 9 6ZM12 14C12.2652 14 12.5196 14.1054 12.7071 14.2929C12.8946 14.4804 13 14.7348 13 15V16C13 16.2652 12.8946 16.5196 12.7071 16.7071C12.5196 16.8946 12.2652 17 12 17C11.7348 17 11.4804 16.8946 11.2929 16.7071C11.1054 16.5196 11 16.2652 11 16V15C11 14.7348 11.1054 14.4804 11.2929 14.2929C11.4804 14.1054 11.7348 14 12 14Z" fill="black"/>
<path fill-rule="evenodd" clip-rule="evenodd" d="M0 0H24V24H0V0Z" fill="#0c9abe"/>
</g>
</svg>
