<svg width="100" height="100" viewBox="0 0 100 100" fill="none" xmlns="http://www.w3.org/2000/svg">
<path d="M59.675 69.1025L82.2349 91.6624C84.9699 94.3974 89.4044 94.3974 92.1395 91.6623V91.6623C94.8745 88.9273 94.8745 84.4928 92.1395 81.7578L69.5796 59.1979" stroke="#4A5C60" stroke-width="4"/>
<path d="M59.675 69.1025L82.2349 91.6624C84.9699 94.3974 89.4044 94.3974 92.1395 91.6623V91.6623C94.8745 88.9273 94.8745 84.4928 92.1395 81.7578L69.5796 59.1979" stroke="#4A5C60" stroke-width="4"/>
<rect x="27.7237" y="48.6145" width="29.9324" height="2.55525" rx="1.27762" transform="rotate(-45 27.7237 48.6145)" fill="#4A5C60" stroke="#4A5C60"/>
<rect x="0.707107" y="-1.19209e-07" width="29.9324" height="2.55525" rx="1.27762" transform="matrix(0.707107 0.707107 0.707107 -0.707107 27.2237 28.7559)" fill="#4A5C60" stroke="#4A5C60"/>
<rect x="27.7237" y="48.6145" width="29.9324" height="2.55525" rx="1.27762" transform="rotate(-45 27.7237 48.6145)" fill="#4A5C60" stroke="#4A5C60"/>
<rect x="0.707107" y="-1.19209e-07" width="29.9324" height="2.55525" rx="1.27762" transform="matrix(0.707107 0.707107 0.707107 -0.707107 27.2237 28.7559)" fill="#4A5C60" stroke="#4A5C60"/>
<path d="M61.5822 68.3094C54.1589 74.0289 44.8419 76.7186 35.5125 75.8353C26.1831 74.952 17.5364 70.5616 11.3184 63.5505C5.10039 56.5395 1.77435 47.4302 2.01189 38.0621C2.24943 28.694 6.03284 19.765 12.5982 13.0781C19.1635 6.39124 28.0216 2.44467 37.3838 2.03532C46.7459 1.62597 55.9147 4.78435 63.0386 10.8727C70.1625 16.961 74.7108 25.5257 75.7651 34.8374C76.8194 44.149 74.3011 53.5138 68.7188 61.0408" stroke="#4A5C60" stroke-width="4"/>
<circle cx="39.5" cy="38.5" r="25.5" stroke="#4A5C60" stroke-width="4"/>
</svg>
