<svg viewBox="0 0 410 850" fill="none"  xmlns="http://www.w3.org/2000/svg" style='stroke-width: 0px; background-color: white;' >
<path fill-rule="evenodd" clip-rule="evenodd" d="M186.726 -261.027C436.878 -261.027 639.559 -58.2253 639.559 191.917C639.559 442.097 436.878 644.861 186.726 644.861C-63.3514 644.861 -266.107 442.097 -266.107 191.917C-266.107 -58.2253 -63.3514 -261.027 186.726 -261.027ZM492.011 359.647C514.351 339.073 514.426 25.8853 492.011 -6.09032C463.143 -30.7421 85.593 -126.254 56.8381 -116.174C46.4607 -106.661 40.9135 -34.555 40.121 43.3643C-39.3135 24.6018 -107.805 11.4642 -119.465 15.5036C-141.842 36.116 -141.842 349.379 -119.503 381.204C-90.6723 405.893 286.915 501.442 315.745 491.325C326.085 481.812 331.632 409.706 332.425 331.824C411.822 350.549 480.313 363.687 492.011 359.647ZM315.745 125.625C327.783 142.764 333.33 241.221 332.425 331.824C215.103 304.115 73.8948 264.249 56.8004 249.526C44.7625 232.387 39.2531 133.93 40.121 43.3643C157.443 71.0363 298.538 110.902 315.745 125.625Z" fill="black" fill-opacity="0.05"/>
</svg>
