<svg width="36" height="60" viewBox="0 0 36 60" fill="none" xmlns="http://www.w3.org/2000/svg">
<path d="M28.8397 53.6454H7.2673C3.6493 53.6454 0.706299 50.703 0.706299 47.0844V19.578C0.706299 15.96 3.6493 13.017 7.2673 13.017H28.8397C32.4571 13.017 35.4001 15.9606 35.4001 19.578V47.0844C35.4001 50.703 32.4571 53.6454 28.8397 53.6454ZM7.2673 15.1494C4.8253 15.1494 2.8387 17.136 2.8387 19.578V47.0844C2.8387 49.5258 4.8253 51.513 7.2673 51.513H28.8397C31.2817 51.513 33.2677 49.5258 33.2677 47.0844V19.578C33.2677 17.136 31.2811 15.1494 28.8397 15.1494H7.2673Z" fill="#4A5C60"/>
<path d="M11.4493 45.9954C10.8607 45.9954 10.3831 45.5178 10.3831 44.9292V21.7848C10.3831 21.1962 10.8607 20.7186 11.4493 20.7186C12.0379 20.7186 12.5155 21.1962 12.5155 21.7848V44.9292C12.5155 45.5178 12.0379 45.9954 11.4493 45.9954Z" fill="#4A5C60"/>
<path d="M18.0535 45.9954C17.4649 45.9954 16.9873 45.5178 16.9873 44.9292V21.7848C16.9873 21.1962 17.4649 20.7186 18.0535 20.7186C18.6421 20.7186 19.1197 21.1962 19.1197 21.7848V44.9292C19.1197 45.5178 18.6421 45.9954 18.0535 45.9954Z" fill="#4A5C60"/>
<path d="M24.657 45.9954C24.0684 45.9954 23.5908 45.5178 23.5908 44.9292V21.7854C23.5908 21.1968 24.0684 20.7192 24.657 20.7192C25.2456 20.7192 25.7232 21.1962 25.7232 21.7854V44.9292C25.7232 45.5178 25.2456 45.9954 24.657 45.9954Z" fill="#4A5C60"/>
<path d="M23.5022 11.3802C22.9136 11.3802 22.436 10.9026 22.436 10.314V4.13705C22.436 3.57365 21.9776 3.11465 21.4142 3.11465H14.693C14.1296 3.11465 13.6712 3.57305 13.6712 4.13705V10.314C13.6712 10.9026 13.1936 11.3802 12.605 11.3802C12.0164 11.3802 11.5388 10.9026 11.5388 10.314V4.13705C11.5388 2.39765 12.9536 0.982849 14.693 0.982849H21.4142C23.153 0.982849 24.5684 2.39765 24.5684 4.13705V10.314C24.5684 10.9026 24.0908 11.3802 23.5022 11.3802Z" fill="#4A5C60"/>
<path d="M8.38573 55.2108C7.28833 55.7352 6.82393 57.0498 7.34893 58.1479C7.87393 59.2459 9.18853 59.7096 10.2865 59.1846C11.3845 58.659 11.8477 57.3451 11.3233 56.2477C10.7977 55.1497 9.48253 54.6858 8.38573 55.2108Z" fill="#FAA635"/>
<path d="M25.8198 55.2108C24.7224 55.7352 24.2586 57.0498 24.7836 58.1479C25.3086 59.2459 26.6238 59.7096 27.7206 59.1846C28.818 58.659 29.2818 57.3451 28.7568 56.2477C28.2324 55.1497 26.9166 54.6858 25.8198 55.2108Z" fill="#6DC1D3"/>
</svg>
